<mxfile host="app.diagrams.net" modified="2023-09-20T18:29:56.972Z" agent="Mozilla/5.0 (Macintosh; Intel Mac OS X 10_15_7) AppleWebKit/605.1.15 (KHTML, like Gecko) Version/16.6 Safari/605.1.15" etag="nLdr_uI5kW0KE8VYejwJ" version="21.7.5" type="github" pages="3">
  <diagram name="Page-1" id="p8_3g07KMqLrxOwdvpZi">
    <mxGraphModel dx="839" dy="736" grid="1" gridSize="10" guides="1" tooltips="1" connect="1" arrows="1" fold="1" page="1" pageScale="1" pageWidth="827" pageHeight="1169" math="0" shadow="0">
      <root>
        <mxCell id="0" />
        <mxCell id="1" parent="0" />
        <UserObject label="" plantUmlData="{&#xa;  &quot;data&quot;: &quot;@startuml SupermarketMerchandiseAccounting\n\nclass Supermarket {\n  +Name: string\n  +Address: string\n  +PhoneNumber: string\n}\n\nclass Warehouse {\n  +Location: string\n  +Capacity: int\n  +Inventory: list&lt;Inventory&gt;\n}\n\nclass Goods {\n  +SKU: string\n  +Name: string\n  +Description: string\n  +Price: decimal\n  +Quantity: int\n  +ExpiryDate: date\n  +Supplier: string\n}\n\nclass Employee {\n  +EmployeeID: int\n  +Name: string\n  +Position: string\n  +ContactInfo: string\n}\n\nclass Inventory {\n  +Quantity: int\n  +DateReceived: date\n  +DateChecked: date\n  +DateIssued: date\n}\n\nclass RetailPremises {\n  +Location: string\n  +Size: int\n  +Layout: string\n  +Inventory: list&lt;Inventory&gt;\n}\n\nclass CashRegister {\n  +RegisterID: int\n  +Cashier: Employee\n  +TotalSales: decimal\n}\n\nclass Transaction {\n  +TransactionID: int\n  +Date: date\n  +Time: time\n  +PaymentMethod: string\n  +TotalAmount: decimal\n}\n\nSupermarket --|&gt; Warehouse\nSupermarket --|&gt; RetailPremises\nWarehouse --|&gt; Goods\nWarehouse --|&gt; Employee\nWarehouse *-- Inventory\nRetailPremises *-- Inventory\nRetailPremises --|&gt; Employee\nCashRegister --|&gt; Transaction\nTransaction --|&gt; Goods\n\n@enduml\n&quot;,&#xa;  &quot;format&quot;: &quot;svg&quot;&#xa;}" id="UDvX1U5WXGKrLuGNLfrB-1">
          <mxCell style="shape=image;noLabel=1;verticalAlign=top;aspect=fixed;imageAspect=0;image=data:image/svg+xml,PD94bWwgdmVyc2lvbj0iMS4wIiBlbmNvZGluZz0idXMtYXNjaWkiIHN0YW5kYWxvbmU9Im5vIj8+PHN2ZyB4bWxucz0iaHR0cDovL3d3dy53My5vcmcvMjAwMC9zdmciIHhtbG5zOnhsaW5rPSJodHRwOi8vd3d3LnczLm9yZy8xOTk5L3hsaW5rIiBjb250ZW50U3R5bGVUeXBlPSJ0ZXh0L2NzcyIgaGVpZ2h0PSI1MDJweCIgcHJlc2VydmVBc3BlY3RSYXRpbz0ibm9uZSIgc3R5bGU9IndpZHRoOjY3NHB4O2hlaWdodDo1MDJweDtiYWNrZ3JvdW5kOiNGRkZGRkY7IiB2ZXJzaW9uPSIxLjEiIHZpZXdCb3g9IjAgMCA2NzQgNTAyIiB3aWR0aD0iNjc0cHgiIHpvb21BbmRQYW49Im1hZ25pZnkiPjxkZWZzLz48Zz48IS0tY2xhc3MgU3VwZXJtYXJrZXQtLT48ZyBpZD0iZWxlbV9TdXBlcm1hcmtldCI+PHJlY3QgY29kZUxpbmU9IjEiIGZpbGw9IiNGMUYxRjEiIGhlaWdodD0iOTIuOTUzMSIgaWQ9IlN1cGVybWFya2V0IiByeD0iMi41IiByeT0iMi41IiBzdHlsZT0ic3Ryb2tlOiMxODE4MTg7c3Ryb2tlLXdpZHRoOjAuNTsiIHdpZHRoPSIxNjAiIHg9IjM2MSIgeT0iNyIvPjxlbGxpcHNlIGN4PSIzOTguNSIgY3k9IjIzIiBmaWxsPSIjQUREMUIyIiByeD0iMTEiIHJ5PSIxMSIgc3R5bGU9InN0cm9rZTojMTgxODE4O3N0cm9rZS13aWR0aDoxLjA7Ii8+PHBhdGggZD0iTTM5Ni4xMjUsMjcuMjUgTDM5Ni4xMjUsMjkgTDQwMS4wNjI1LDI5IEw0MDEuMDYyNSwyNy4yNSBMMzk2LjEyNSwyNy4yNSBaIE0zOTYuODEyNSwyNy45Mzc1IFEzOTYuODEyNSwyNy45Mzc1IDM5Ni44MTI1LDE4Ljc1IEwzOTUuMDYyNSwxOC43NSBRMzk1LjA2MjUsMTguNzUgMzk1LjA2MjUsMjcuOTM3NSBMMzk2LjgxMjUsMjcuOTM3NSBaIE00MDAuMzc1LDI3LjkzNzUgTDQwMi4xMjUsMjcuOTM3NSBRNDAyLjEyNSwyNy45Mzc1IDQwMi4xMjUsMjUuMTI1IEw0MDAuMzc1LDI1LjEyNSBRNDAwLjM3NSwyNS4xMjUgNDAwLjM3NSwyNy45Mzc1IFogTTQwMC4zNzUsMTguNzUgUTQwMC4zNzUsMTguNzUgNDAwLjM3NSwyMS41NjI1IEw0MDIuMTI1LDIxLjU2MjUgUTQwMi4xMjUsMjEuNTYyNSA0MDIuMTI1LDE4Ljc1IEw0MDAuMzc1LDE4Ljc1IFogTTM5Ni4xMjUsMTkuNDM3NSBMNDAxLjA2MjUsMTkuNDM3NSBMNDAxLjA2MjUsMTcuNjg3NSBMMzk2LjEyNSwxNy42ODc1IEwzOTYuMTI1LDE5LjQzNzUgWiAiIGZpbGw9IiMwMDAwMDAiLz48dGV4dCBmaWxsPSIjMDAwMDAwIiBmb250LWZhbWlseT0ic2Fucy1zZXJpZiIgZm9udC1zaXplPSIxNCIgbGVuZ3RoQWRqdXN0PSJzcGFjaW5nIiB0ZXh0TGVuZ3RoPSI3OCIgeD0iNDE3LjUiIHk9IjI4Ljc0MjIiPlN1cGVybWFya2V0PC90ZXh0PjxsaW5lIHN0eWxlPSJzdHJva2U6IzE4MTgxODtzdHJva2Utd2lkdGg6MC41OyIgeDE9IjM2MiIgeDI9IjUyMCIgeTE9IjM5IiB5Mj0iMzkiLz48ZWxsaXBzZSBjeD0iMzcyIiBjeT0iNTEuOTkyMiIgZmlsbD0ibm9uZSIgcng9IjMiIHJ5PSIzIiBzdHlsZT0ic3Ryb2tlOiMwMzgwNDg7c3Ryb2tlLXdpZHRoOjEuMDsiLz48dGV4dCBmaWxsPSIjMDAwMDAwIiBmb250LWZhbWlseT0ic2Fucy1zZXJpZiIgZm9udC1zaXplPSIxNCIgbGVuZ3RoQWRqdXN0PSJzcGFjaW5nIiB0ZXh0TGVuZ3RoPSI4NSIgeD0iMzgxIiB5PSI1Ni4yMzQ0Ij5OYW1lOiBzdHJpbmc8L3RleHQ+PGVsbGlwc2UgY3g9IjM3MiIgY3k9IjY2Ljk3NjYiIGZpbGw9Im5vbmUiIHJ4PSIzIiByeT0iMyIgc3R5bGU9InN0cm9rZTojMDM4MDQ4O3N0cm9rZS13aWR0aDoxLjA7Ii8+PHRleHQgZmlsbD0iIzAwMDAwMCIgZm9udC1mYW1pbHk9InNhbnMtc2VyaWYiIGZvbnQtc2l6ZT0iMTQiIGxlbmd0aEFkanVzdD0ic3BhY2luZyIgdGV4dExlbmd0aD0iMTA1IiB4PSIzODEiIHk9IjcxLjIxODgiPkFkZHJlc3M6IHN0cmluZzwvdGV4dD48ZWxsaXBzZSBjeD0iMzcyIiBjeT0iODEuOTYwOSIgZmlsbD0ibm9uZSIgcng9IjMiIHJ5PSIzIiBzdHlsZT0ic3Ryb2tlOiMwMzgwNDg7c3Ryb2tlLXdpZHRoOjEuMDsiLz48dGV4dCBmaWxsPSIjMDAwMDAwIiBmb250LWZhbWlseT0ic2Fucy1zZXJpZiIgZm9udC1zaXplPSIxNCIgbGVuZ3RoQWRqdXN0PSJzcGFjaW5nIiB0ZXh0TGVuZ3RoPSIxMzQiIHg9IjM4MSIgeT0iODYuMjAzMSI+UGhvbmVOdW1iZXI6IHN0cmluZzwvdGV4dD48bGluZSBzdHlsZT0ic3Ryb2tlOiMxODE4MTg7c3Ryb2tlLXdpZHRoOjAuNTsiIHgxPSIzNjIiIHgyPSI1MjAiIHkxPSI5MS45NTMxIiB5Mj0iOTEuOTUzMSIvPjwvZz48IS0tY2xhc3MgV2FyZWhvdXNlLS0+PGcgaWQ9ImVsZW1fV2FyZWhvdXNlIj48cmVjdCBjb2RlTGluZT0iNyIgZmlsbD0iI0YxRjFGMSIgaGVpZ2h0PSI5Mi45NTMxIiBpZD0iV2FyZWhvdXNlIiByeD0iMi41IiByeT0iMi41IiBzdHlsZT0ic3Ryb2tlOiMxODE4MTg7c3Ryb2tlLXdpZHRoOjAuNTsiIHdpZHRoPSIyMDgiIHg9IjIxNiIgeT0iMTc1Ii8+PGVsbGlwc2UgY3g9IjI4NC4yNSIgY3k9IjE5MSIgZmlsbD0iI0FERDFCMiIgcng9IjExIiByeT0iMTEiIHN0eWxlPSJzdHJva2U6IzE4MTgxODtzdHJva2Utd2lkdGg6MS4wOyIvPjxwYXRoIGQ9Ik0yODEuODc1LDE5NS4yNSBMMjgxLjg3NSwxOTcgTDI4Ni44MTI1LDE5NyBMMjg2LjgxMjUsMTk1LjI1IEwyODEuODc1LDE5NS4yNSBaIE0yODIuNTYyNSwxOTUuOTM3NSBRMjgyLjU2MjUsMTk1LjkzNzUgMjgyLjU2MjUsMTg2Ljc1IEwyODAuODEyNSwxODYuNzUgUTI4MC44MTI1LDE4Ni43NSAyODAuODEyNSwxOTUuOTM3NSBMMjgyLjU2MjUsMTk1LjkzNzUgWiBNMjg2LjEyNSwxOTUuOTM3NSBMMjg3Ljg3NSwxOTUuOTM3NSBRMjg3Ljg3NSwxOTUuOTM3NSAyODcuODc1LDE5My4xMjUgTDI4Ni4xMjUsMTkzLjEyNSBRMjg2LjEyNSwxOTMuMTI1IDI4Ni4xMjUsMTk1LjkzNzUgWiBNMjg2LjEyNSwxODYuNzUgUTI4Ni4xMjUsMTg2Ljc1IDI4Ni4xMjUsMTg5LjU2MjUgTDI4Ny44NzUsMTg5LjU2MjUgUTI4Ny44NzUsMTg5LjU2MjUgMjg3Ljg3NSwxODYuNzUgTDI4Ni4xMjUsMTg2Ljc1IFogTTI4MS44NzUsMTg3LjQzNzUgTDI4Ni44MTI1LDE4Ny40Mzc1IEwyODYuODEyNSwxODUuNjg3NSBMMjgxLjg3NSwxODUuNjg3NSBMMjgxLjg3NSwxODcuNDM3NSBaICIgZmlsbD0iIzAwMDAwMCIvPjx0ZXh0IGZpbGw9IiMwMDAwMDAiIGZvbnQtZmFtaWx5PSJzYW5zLXNlcmlmIiBmb250LXNpemU9IjE0IiBsZW5ndGhBZGp1c3Q9InNwYWNpbmciIHRleHRMZW5ndGg9IjYzIiB4PSIzMDQuNzUiIHk9IjE5Ni43NDIyIj5XYXJlaG91c2U8L3RleHQ+PGxpbmUgc3R5bGU9InN0cm9rZTojMTgxODE4O3N0cm9rZS13aWR0aDowLjU7IiB4MT0iMjE3IiB4Mj0iNDIzIiB5MT0iMjA3IiB5Mj0iMjA3Ii8+PGVsbGlwc2UgY3g9IjIyNyIgY3k9IjIxOS45OTIyIiBmaWxsPSJub25lIiByeD0iMyIgcnk9IjMiIHN0eWxlPSJzdHJva2U6IzAzODA0ODtzdHJva2Utd2lkdGg6MS4wOyIvPjx0ZXh0IGZpbGw9IiMwMDAwMDAiIGZvbnQtZmFtaWx5PSJzYW5zLXNlcmlmIiBmb250LXNpemU9IjE0IiBsZW5ndGhBZGp1c3Q9InNwYWNpbmciIHRleHRMZW5ndGg9IjExMiIgeD0iMjM2IiB5PSIyMjQuMjM0NCI+TG9jYXRpb246IHN0cmluZzwvdGV4dD48ZWxsaXBzZSBjeD0iMjI3IiBjeT0iMjM0Ljk3NjYiIGZpbGw9Im5vbmUiIHJ4PSIzIiByeT0iMyIgc3R5bGU9InN0cm9rZTojMDM4MDQ4O3N0cm9rZS13aWR0aDoxLjA7Ii8+PHRleHQgZmlsbD0iIzAwMDAwMCIgZm9udC1mYW1pbHk9InNhbnMtc2VyaWYiIGZvbnQtc2l6ZT0iMTQiIGxlbmd0aEFkanVzdD0ic3BhY2luZyIgdGV4dExlbmd0aD0iOTEiIHg9IjIzNiIgeT0iMjM5LjIxODgiPkNhcGFjaXR5OiBpbnQ8L3RleHQ+PGVsbGlwc2UgY3g9IjIyNyIgY3k9IjI0OS45NjA5IiBmaWxsPSJub25lIiByeD0iMyIgcnk9IjMiIHN0eWxlPSJzdHJva2U6IzAzODA0ODtzdHJva2Utd2lkdGg6MS4wOyIvPjx0ZXh0IGZpbGw9IiMwMDAwMDAiIGZvbnQtZmFtaWx5PSJzYW5zLXNlcmlmIiBmb250LXNpemU9IjE0IiBsZW5ndGhBZGp1c3Q9InNwYWNpbmciIHRleHRMZW5ndGg9IjE4MiIgeD0iMjM2IiB5PSIyNTQuMjAzMSI+SW52ZW50b3J5OiBsaXN0Jmx0O0ludmVudG9yeSZndDs8L3RleHQ+PGxpbmUgc3R5bGU9InN0cm9rZTojMTgxODE4O3N0cm9rZS13aWR0aDowLjU7IiB4MT0iMjE3IiB4Mj0iNDIzIiB5MT0iMjU5Ljk1MzEiIHkyPSIyNTkuOTUzMSIvPjwvZz48IS0tY2xhc3MgR29vZHMtLT48ZyBpZD0iZWxlbV9Hb29kcyI+PHJlY3QgY29kZUxpbmU9IjEzIiBmaWxsPSIjRjFGMUYxIiBoZWlnaHQ9IjE1Mi44OTA2IiBpZD0iR29vZHMiIHJ4PSIyLjUiIHJ5PSIyLjUiIHN0eWxlPSJzdHJva2U6IzE4MTgxODtzdHJva2Utd2lkdGg6MC41OyIgd2lkdGg9IjE1OSIgeD0iNDUuNSIgeT0iMzQzIi8+PGVsbGlwc2UgY3g9IjEwMy4yNSIgY3k9IjM1OSIgZmlsbD0iI0FERDFCMiIgcng9IjExIiByeT0iMTEiIHN0eWxlPSJzdHJva2U6IzE4MTgxODtzdHJva2Utd2lkdGg6MS4wOyIvPjxwYXRoIGQ9Ik0xMDAuODc1LDM2My4yNSBMMTAwLjg3NSwzNjUgTDEwNS44MTI1LDM2NSBMMTA1LjgxMjUsMzYzLjI1IEwxMDAuODc1LDM2My4yNSBaIE0xMDEuNTYyNSwzNjMuOTM3NSBRMTAxLjU2MjUsMzYzLjkzNzUgMTAxLjU2MjUsMzU0Ljc1IEw5OS44MTI1LDM1NC43NSBROTkuODEyNSwzNTQuNzUgOTkuODEyNSwzNjMuOTM3NSBMMTAxLjU2MjUsMzYzLjkzNzUgWiBNMTA1LjEyNSwzNjMuOTM3NSBMMTA2Ljg3NSwzNjMuOTM3NSBRMTA2Ljg3NSwzNjMuOTM3NSAxMDYuODc1LDM2MS4xMjUgTDEwNS4xMjUsMzYxLjEyNSBRMTA1LjEyNSwzNjEuMTI1IDEwNS4xMjUsMzYzLjkzNzUgWiBNMTA1LjEyNSwzNTQuNzUgUTEwNS4xMjUsMzU0Ljc1IDEwNS4xMjUsMzU3LjU2MjUgTDEwNi44NzUsMzU3LjU2MjUgUTEwNi44NzUsMzU3LjU2MjUgMTA2Ljg3NSwzNTQuNzUgTDEwNS4xMjUsMzU0Ljc1IFogTTEwMC44NzUsMzU1LjQzNzUgTDEwNS44MTI1LDM1NS40Mzc1IEwxMDUuODEyNSwzNTMuNjg3NSBMMTAwLjg3NSwzNTMuNjg3NSBMMTAwLjg3NSwzNTUuNDM3NSBaICIgZmlsbD0iIzAwMDAwMCIvPjx0ZXh0IGZpbGw9IiMwMDAwMDAiIGZvbnQtZmFtaWx5PSJzYW5zLXNlcmlmIiBmb250LXNpemU9IjE0IiBsZW5ndGhBZGp1c3Q9InNwYWNpbmciIHRleHRMZW5ndGg9IjM1IiB4PSIxMjMuNzUiIHk9IjM2NC43NDIyIj5Hb29kczwvdGV4dD48bGluZSBzdHlsZT0ic3Ryb2tlOiMxODE4MTg7c3Ryb2tlLXdpZHRoOjAuNTsiIHgxPSI0Ni41IiB4Mj0iMjAzLjUiIHkxPSIzNzUiIHkyPSIzNzUiLz48ZWxsaXBzZSBjeD0iNTYuNSIgY3k9IjM4Ny45OTIyIiBmaWxsPSJub25lIiByeD0iMyIgcnk9IjMiIHN0eWxlPSJzdHJva2U6IzAzODA0ODtzdHJva2Utd2lkdGg6MS4wOyIvPjx0ZXh0IGZpbGw9IiMwMDAwMDAiIGZvbnQtZmFtaWx5PSJzYW5zLXNlcmlmIiBmb250LXNpemU9IjE0IiBsZW5ndGhBZGp1c3Q9InNwYWNpbmciIHRleHRMZW5ndGg9Ijc3IiB4PSI2NS41IiB5PSIzOTIuMjM0NCI+U0tVOiBzdHJpbmc8L3RleHQ+PGVsbGlwc2UgY3g9IjU2LjUiIGN5PSI0MDIuOTc2NiIgZmlsbD0ibm9uZSIgcng9IjMiIHJ5PSIzIiBzdHlsZT0ic3Ryb2tlOiMwMzgwNDg7c3Ryb2tlLXdpZHRoOjEuMDsiLz48dGV4dCBmaWxsPSIjMDAwMDAwIiBmb250LWZhbWlseT0ic2Fucy1zZXJpZiIgZm9udC1zaXplPSIxNCIgbGVuZ3RoQWRqdXN0PSJzcGFjaW5nIiB0ZXh0TGVuZ3RoPSI4NSIgeD0iNjUuNSIgeT0iNDA3LjIxODgiPk5hbWU6IHN0cmluZzwvdGV4dD48ZWxsaXBzZSBjeD0iNTYuNSIgY3k9IjQxNy45NjA5IiBmaWxsPSJub25lIiByeD0iMyIgcnk9IjMiIHN0eWxlPSJzdHJva2U6IzAzODA0ODtzdHJva2Utd2lkdGg6MS4wOyIvPjx0ZXh0IGZpbGw9IiMwMDAwMDAiIGZvbnQtZmFtaWx5PSJzYW5zLXNlcmlmIiBmb250LXNpemU9IjE0IiBsZW5ndGhBZGp1c3Q9InNwYWNpbmciIHRleHRMZW5ndGg9IjEzMyIgeD0iNjUuNSIgeT0iNDIyLjIwMzEiPkRlc2NyaXB0aW9uOiBzdHJpbmc8L3RleHQ+PGVsbGlwc2UgY3g9IjU2LjUiIGN5PSI0MzIuOTQ1MyIgZmlsbD0ibm9uZSIgcng9IjMiIHJ5PSIzIiBzdHlsZT0ic3Ryb2tlOiMwMzgwNDg7c3Ryb2tlLXdpZHRoOjEuMDsiLz48dGV4dCBmaWxsPSIjMDAwMDAwIiBmb250LWZhbWlseT0ic2Fucy1zZXJpZiIgZm9udC1zaXplPSIxNCIgbGVuZ3RoQWRqdXN0PSJzcGFjaW5nIiB0ZXh0TGVuZ3RoPSI5OSIgeD0iNjUuNSIgeT0iNDM3LjE4NzUiPlByaWNlOiBkZWNpbWFsPC90ZXh0PjxlbGxpcHNlIGN4PSI1Ni41IiBjeT0iNDQ3LjkyOTciIGZpbGw9Im5vbmUiIHJ4PSIzIiByeT0iMyIgc3R5bGU9InN0cm9rZTojMDM4MDQ4O3N0cm9rZS13aWR0aDoxLjA7Ii8+PHRleHQgZmlsbD0iIzAwMDAwMCIgZm9udC1mYW1pbHk9InNhbnMtc2VyaWYiIGZvbnQtc2l6ZT0iMTQiIGxlbmd0aEFkanVzdD0ic3BhY2luZyIgdGV4dExlbmd0aD0iOTEiIHg9IjY1LjUiIHk9IjQ1Mi4xNzE5Ij5RdWFudGl0eTogaW50PC90ZXh0PjxlbGxpcHNlIGN4PSI1Ni41IiBjeT0iNDYyLjkxNDEiIGZpbGw9Im5vbmUiIHJ4PSIzIiByeT0iMyIgc3R5bGU9InN0cm9rZTojMDM4MDQ4O3N0cm9rZS13aWR0aDoxLjA7Ii8+PHRleHQgZmlsbD0iIzAwMDAwMCIgZm9udC1mYW1pbHk9InNhbnMtc2VyaWYiIGZvbnQtc2l6ZT0iMTQiIGxlbmd0aEFkanVzdD0ic3BhY2luZyIgdGV4dExlbmd0aD0iMTEyIiB4PSI2NS41IiB5PSI0NjcuMTU2MyI+RXhwaXJ5RGF0ZTogZGF0ZTwvdGV4dD48ZWxsaXBzZSBjeD0iNTYuNSIgY3k9IjQ3Ny44OTg0IiBmaWxsPSJub25lIiByeD0iMyIgcnk9IjMiIHN0eWxlPSJzdHJva2U6IzAzODA0ODtzdHJva2Utd2lkdGg6MS4wOyIvPjx0ZXh0IGZpbGw9IiMwMDAwMDAiIGZvbnQtZmFtaWx5PSJzYW5zLXNlcmlmIiBmb250LXNpemU9IjE0IiBsZW5ndGhBZGp1c3Q9InNwYWNpbmciIHRleHRMZW5ndGg9IjExMiIgeD0iNjUuNSIgeT0iNDgyLjE0MDYiPlN1cHBsaWVyOiBzdHJpbmc8L3RleHQ+PGxpbmUgc3R5bGU9InN0cm9rZTojMTgxODE4O3N0cm9rZS13aWR0aDowLjU7IiB4MT0iNDYuNSIgeDI9IjIwMy41IiB5MT0iNDg3Ljg5MDYiIHkyPSI0ODcuODkwNiIvPjwvZz48IS0tY2xhc3MgRW1wbG95ZWUtLT48ZyBpZD0iZWxlbV9FbXBsb3llZSI+PHJlY3QgY29kZUxpbmU9IjIzIiBmaWxsPSIjRjFGMUYxIiBoZWlnaHQ9IjEwNy45Mzc1IiBpZD0iRW1wbG95ZWUiIHJ4PSIyLjUiIHJ5PSIyLjUiIHN0eWxlPSJzdHJva2U6IzE4MTgxODtzdHJva2Utd2lkdGg6MC41OyIgd2lkdGg9IjE1OSIgeD0iNDcwLjUiIHk9IjM2NS41Ii8+PGVsbGlwc2UgY3g9IjUxNy4yNSIgY3k9IjM4MS41IiBmaWxsPSIjQUREMUIyIiByeD0iMTEiIHJ5PSIxMSIgc3R5bGU9InN0cm9rZTojMTgxODE4O3N0cm9rZS13aWR0aDoxLjA7Ii8+PHBhdGggZD0iTTUxNC44NzUsMzg1Ljc1IEw1MTQuODc1LDM4Ny41IEw1MTkuODEyNSwzODcuNSBMNTE5LjgxMjUsMzg1Ljc1IEw1MTQuODc1LDM4NS43NSBaIE01MTUuNTYyNSwzODYuNDM3NSBRNTE1LjU2MjUsMzg2LjQzNzUgNTE1LjU2MjUsMzc3LjI1IEw1MTMuODEyNSwzNzcuMjUgUTUxMy44MTI1LDM3Ny4yNSA1MTMuODEyNSwzODYuNDM3NSBMNTE1LjU2MjUsMzg2LjQzNzUgWiBNNTE5LjEyNSwzODYuNDM3NSBMNTIwLjg3NSwzODYuNDM3NSBRNTIwLjg3NSwzODYuNDM3NSA1MjAuODc1LDM4My42MjUgTDUxOS4xMjUsMzgzLjYyNSBRNTE5LjEyNSwzODMuNjI1IDUxOS4xMjUsMzg2LjQzNzUgWiBNNTE5LjEyNSwzNzcuMjUgUTUxOS4xMjUsMzc3LjI1IDUxOS4xMjUsMzgwLjA2MjUgTDUyMC44NzUsMzgwLjA2MjUgUTUyMC44NzUsMzgwLjA2MjUgNTIwLjg3NSwzNzcuMjUgTDUxOS4xMjUsMzc3LjI1IFogTTUxNC44NzUsMzc3LjkzNzUgTDUxOS44MTI1LDM3Ny45Mzc1IEw1MTkuODEyNSwzNzYuMTg3NSBMNTE0Ljg3NSwzNzYuMTg3NSBMNTE0Ljg3NSwzNzcuOTM3NSBaICIgZmlsbD0iIzAwMDAwMCIvPjx0ZXh0IGZpbGw9IiMwMDAwMDAiIGZvbnQtZmFtaWx5PSJzYW5zLXNlcmlmIiBmb250LXNpemU9IjE0IiBsZW5ndGhBZGp1c3Q9InNwYWNpbmciIHRleHRMZW5ndGg9IjU3IiB4PSI1MzcuNzUiIHk9IjM4Ny4yNDIyIj5FbXBsb3llZTwvdGV4dD48bGluZSBzdHlsZT0ic3Ryb2tlOiMxODE4MTg7c3Ryb2tlLXdpZHRoOjAuNTsiIHgxPSI0NzEuNSIgeDI9IjYyOC41IiB5MT0iMzk3LjUiIHkyPSIzOTcuNSIvPjxlbGxpcHNlIGN4PSI0ODEuNSIgY3k9IjQxMC40OTIyIiBmaWxsPSJub25lIiByeD0iMyIgcnk9IjMiIHN0eWxlPSJzdHJva2U6IzAzODA0ODtzdHJva2Utd2lkdGg6MS4wOyIvPjx0ZXh0IGZpbGw9IiMwMDAwMDAiIGZvbnQtZmFtaWx5PSJzYW5zLXNlcmlmIiBmb250LXNpemU9IjE0IiBsZW5ndGhBZGp1c3Q9InNwYWNpbmciIHRleHRMZW5ndGg9IjEwNiIgeD0iNDkwLjUiIHk9IjQxNC43MzQ0Ij5FbXBsb3llZUlEOiBpbnQ8L3RleHQ+PGVsbGlwc2UgY3g9IjQ4MS41IiBjeT0iNDI1LjQ3NjYiIGZpbGw9Im5vbmUiIHJ4PSIzIiByeT0iMyIgc3R5bGU9InN0cm9rZTojMDM4MDQ4O3N0cm9rZS13aWR0aDoxLjA7Ii8+PHRleHQgZmlsbD0iIzAwMDAwMCIgZm9udC1mYW1pbHk9InNhbnMtc2VyaWYiIGZvbnQtc2l6ZT0iMTQiIGxlbmd0aEFkanVzdD0ic3BhY2luZyIgdGV4dExlbmd0aD0iODUiIHg9IjQ5MC41IiB5PSI0MjkuNzE4OCI+TmFtZTogc3RyaW5nPC90ZXh0PjxlbGxpcHNlIGN4PSI0ODEuNSIgY3k9IjQ0MC40NjA5IiBmaWxsPSJub25lIiByeD0iMyIgcnk9IjMiIHN0eWxlPSJzdHJva2U6IzAzODA0ODtzdHJva2Utd2lkdGg6MS4wOyIvPjx0ZXh0IGZpbGw9IiMwMDAwMDAiIGZvbnQtZmFtaWx5PSJzYW5zLXNlcmlmIiBmb250LXNpemU9IjE0IiBsZW5ndGhBZGp1c3Q9InNwYWNpbmciIHRleHRMZW5ndGg9IjExMiIgeD0iNDkwLjUiIHk9IjQ0NC43MDMxIj5Qb3NpdGlvbjogc3RyaW5nPC90ZXh0PjxlbGxpcHNlIGN4PSI0ODEuNSIgY3k9IjQ1NS40NDUzIiBmaWxsPSJub25lIiByeD0iMyIgcnk9IjMiIHN0eWxlPSJzdHJva2U6IzAzODA0ODtzdHJva2Utd2lkdGg6MS4wOyIvPjx0ZXh0IGZpbGw9IiMwMDAwMDAiIGZvbnQtZmFtaWx5PSJzYW5zLXNlcmlmIiBmb250LXNpemU9IjE0IiBsZW5ndGhBZGp1c3Q9InNwYWNpbmciIHRleHRMZW5ndGg9IjEzMyIgeD0iNDkwLjUiIHk9IjQ1OS42ODc1Ij5Db250YWN0SW5mbzogc3RyaW5nPC90ZXh0PjxsaW5lIHN0eWxlPSJzdHJva2U6IzE4MTgxODtzdHJva2Utd2lkdGg6MC41OyIgeDE9IjQ3MS41IiB4Mj0iNjI4LjUiIHkxPSI0NjUuNDM3NSIgeTI9IjQ2NS40Mzc1Ii8+PC9nPjwhLS1jbGFzcyBJbnZlbnRvcnktLT48ZyBpZD0iZWxlbV9JbnZlbnRvcnkiPjxyZWN0IGNvZGVMaW5lPSIzMCIgZmlsbD0iI0YxRjFGMSIgaGVpZ2h0PSIxMDcuOTM3NSIgaWQ9IkludmVudG9yeSIgcng9IjIuNSIgcnk9IjIuNSIgc3R5bGU9InN0cm9rZTojMTgxODE4O3N0cm9rZS13aWR0aDowLjU7IiB3aWR0aD0iMTUyIiB4PSIyNTciIHk9IjM2NS41Ii8+PGVsbGlwc2UgY3g9IjI5Ny42NSIgY3k9IjM4MS41IiBmaWxsPSIjQUREMUIyIiByeD0iMTEiIHJ5PSIxMSIgc3R5bGU9InN0cm9rZTojMTgxODE4O3N0cm9rZS13aWR0aDoxLjA7Ii8+PHBhdGggZD0iTTI5NS4yNzUsMzg1Ljc1IEwyOTUuMjc1LDM4Ny41IEwzMDAuMjEyNSwzODcuNSBMMzAwLjIxMjUsMzg1Ljc1IEwyOTUuMjc1LDM4NS43NSBaIE0yOTUuOTYyNSwzODYuNDM3NSBRMjk1Ljk2MjUsMzg2LjQzNzUgMjk1Ljk2MjUsMzc3LjI1IEwyOTQuMjEyNSwzNzcuMjUgUTI5NC4yMTI1LDM3Ny4yNSAyOTQuMjEyNSwzODYuNDM3NSBMMjk1Ljk2MjUsMzg2LjQzNzUgWiBNMjk5LjUyNSwzODYuNDM3NSBMMzAxLjI3NSwzODYuNDM3NSBRMzAxLjI3NSwzODYuNDM3NSAzMDEuMjc1LDM4My42MjUgTDI5OS41MjUsMzgzLjYyNSBRMjk5LjUyNSwzODMuNjI1IDI5OS41MjUsMzg2LjQzNzUgWiBNMjk5LjUyNSwzNzcuMjUgUTI5OS41MjUsMzc3LjI1IDI5OS41MjUsMzgwLjA2MjUgTDMwMS4yNzUsMzgwLjA2MjUgUTMwMS4yNzUsMzgwLjA2MjUgMzAxLjI3NSwzNzcuMjUgTDI5OS41MjUsMzc3LjI1IFogTTI5NS4yNzUsMzc3LjkzNzUgTDMwMC4yMTI1LDM3Ny45Mzc1IEwzMDAuMjEyNSwzNzYuMTg3NSBMMjk1LjI3NSwzNzYuMTg3NSBMMjk1LjI3NSwzNzcuOTM3NSBaICIgZmlsbD0iIzAwMDAwMCIvPjx0ZXh0IGZpbGw9IiMwMDAwMDAiIGZvbnQtZmFtaWx5PSJzYW5zLXNlcmlmIiBmb250LXNpemU9IjE0IiBsZW5ndGhBZGp1c3Q9InNwYWNpbmciIHRleHRMZW5ndGg9IjYzIiB4PSIzMTcuMzUiIHk9IjM4Ny4yNDIyIj5JbnZlbnRvcnk8L3RleHQ+PGxpbmUgc3R5bGU9InN0cm9rZTojMTgxODE4O3N0cm9rZS13aWR0aDowLjU7IiB4MT0iMjU4IiB4Mj0iNDA4IiB5MT0iMzk3LjUiIHkyPSIzOTcuNSIvPjxlbGxpcHNlIGN4PSIyNjgiIGN5PSI0MTAuNDkyMiIgZmlsbD0ibm9uZSIgcng9IjMiIHJ5PSIzIiBzdHlsZT0ic3Ryb2tlOiMwMzgwNDg7c3Ryb2tlLXdpZHRoOjEuMDsiLz48dGV4dCBmaWxsPSIjMDAwMDAwIiBmb250LWZhbWlseT0ic2Fucy1zZXJpZiIgZm9udC1zaXplPSIxNCIgbGVuZ3RoQWRqdXN0PSJzcGFjaW5nIiB0ZXh0TGVuZ3RoPSI5MSIgeD0iMjc3IiB5PSI0MTQuNzM0NCI+UXVhbnRpdHk6IGludDwvdGV4dD48ZWxsaXBzZSBjeD0iMjY4IiBjeT0iNDI1LjQ3NjYiIGZpbGw9Im5vbmUiIHJ4PSIzIiByeT0iMyIgc3R5bGU9InN0cm9rZTojMDM4MDQ4O3N0cm9rZS13aWR0aDoxLjA7Ii8+PHRleHQgZmlsbD0iIzAwMDAwMCIgZm9udC1mYW1pbHk9InNhbnMtc2VyaWYiIGZvbnQtc2l6ZT0iMTQiIGxlbmd0aEFkanVzdD0ic3BhY2luZyIgdGV4dExlbmd0aD0iMTI2IiB4PSIyNzciIHk9IjQyOS43MTg4Ij5EYXRlUmVjZWl2ZWQ6IGRhdGU8L3RleHQ+PGVsbGlwc2UgY3g9IjI2OCIgY3k9IjQ0MC40NjA5IiBmaWxsPSJub25lIiByeD0iMyIgcnk9IjMiIHN0eWxlPSJzdHJva2U6IzAzODA0ODtzdHJva2Utd2lkdGg6MS4wOyIvPjx0ZXh0IGZpbGw9IiMwMDAwMDAiIGZvbnQtZmFtaWx5PSJzYW5zLXNlcmlmIiBmb250LXNpemU9IjE0IiBsZW5ndGhBZGp1c3Q9InNwYWNpbmciIHRleHRMZW5ndGg9IjExOSIgeD0iMjc3IiB5PSI0NDQuNzAzMSI+RGF0ZUNoZWNrZWQ6IGRhdGU8L3RleHQ+PGVsbGlwc2UgY3g9IjI2OCIgY3k9IjQ1NS40NDUzIiBmaWxsPSJub25lIiByeD0iMyIgcnk9IjMiIHN0eWxlPSJzdHJva2U6IzAzODA0ODtzdHJva2Utd2lkdGg6MS4wOyIvPjx0ZXh0IGZpbGw9IiMwMDAwMDAiIGZvbnQtZmFtaWx5PSJzYW5zLXNlcmlmIiBmb250LXNpemU9IjE0IiBsZW5ndGhBZGp1c3Q9InNwYWNpbmciIHRleHRMZW5ndGg9IjExMiIgeD0iMjc3IiB5PSI0NTkuNjg3NSI+RGF0ZUlzc3VlZDogZGF0ZTwvdGV4dD48bGluZSBzdHlsZT0ic3Ryb2tlOiMxODE4MTg7c3Ryb2tlLXdpZHRoOjAuNTsiIHgxPSIyNTgiIHgyPSI0MDgiIHkxPSI0NjUuNDM3NSIgeTI9IjQ2NS40Mzc1Ii8+PC9nPjwhLS1jbGFzcyBSZXRhaWxQcmVtaXNlcy0tPjxnIGlkPSJlbGVtX1JldGFpbFByZW1pc2VzIj48cmVjdCBjb2RlTGluZT0iMzciIGZpbGw9IiNGMUYxRjEiIGhlaWdodD0iMTA3LjkzNzUiIGlkPSJSZXRhaWxQcmVtaXNlcyIgcng9IjIuNSIgcnk9IjIuNSIgc3R5bGU9InN0cm9rZTojMTgxODE4O3N0cm9rZS13aWR0aDowLjU7IiB3aWR0aD0iMjA4IiB4PSI0NTkiIHk9IjE2Ny41Ii8+PGVsbGlwc2UgY3g9IjUwOS4yNSIgY3k9IjE4My41IiBmaWxsPSIjQUREMUIyIiByeD0iMTEiIHJ5PSIxMSIgc3R5bGU9InN0cm9rZTojMTgxODE4O3N0cm9rZS13aWR0aDoxLjA7Ii8+PHBhdGggZD0iTTUwNi44NzUsMTg3Ljc1IEw1MDYuODc1LDE4OS41IEw1MTEuODEyNSwxODkuNSBMNTExLjgxMjUsMTg3Ljc1IEw1MDYuODc1LDE4Ny43NSBaIE01MDcuNTYyNSwxODguNDM3NSBRNTA3LjU2MjUsMTg4LjQzNzUgNTA3LjU2MjUsMTc5LjI1IEw1MDUuODEyNSwxNzkuMjUgUTUwNS44MTI1LDE3OS4yNSA1MDUuODEyNSwxODguNDM3NSBMNTA3LjU2MjUsMTg4LjQzNzUgWiBNNTExLjEyNSwxODguNDM3NSBMNTEyLjg3NSwxODguNDM3NSBRNTEyLjg3NSwxODguNDM3NSA1MTIuODc1LDE4NS42MjUgTDUxMS4xMjUsMTg1LjYyNSBRNTExLjEyNSwxODUuNjI1IDUxMS4xMjUsMTg4LjQzNzUgWiBNNTExLjEyNSwxNzkuMjUgUTUxMS4xMjUsMTc5LjI1IDUxMS4xMjUsMTgyLjA2MjUgTDUxMi44NzUsMTgyLjA2MjUgUTUxMi44NzUsMTgyLjA2MjUgNTEyLjg3NSwxNzkuMjUgTDUxMS4xMjUsMTc5LjI1IFogTTUwNi44NzUsMTc5LjkzNzUgTDUxMS44MTI1LDE3OS45Mzc1IEw1MTEuODEyNSwxNzguMTg3NSBMNTA2Ljg3NSwxNzguMTg3NSBMNTA2Ljg3NSwxNzkuOTM3NSBaICIgZmlsbD0iIzAwMDAwMCIvPjx0ZXh0IGZpbGw9IiMwMDAwMDAiIGZvbnQtZmFtaWx5PSJzYW5zLXNlcmlmIiBmb250LXNpemU9IjE0IiBsZW5ndGhBZGp1c3Q9InNwYWNpbmciIHRleHRMZW5ndGg9Ijk5IiB4PSI1MjkuNzUiIHk9IjE4OS4yNDIyIj5SZXRhaWxQcmVtaXNlczwvdGV4dD48bGluZSBzdHlsZT0ic3Ryb2tlOiMxODE4MTg7c3Ryb2tlLXdpZHRoOjAuNTsiIHgxPSI0NjAiIHgyPSI2NjYiIHkxPSIxOTkuNSIgeTI9IjE5OS41Ii8+PGVsbGlwc2UgY3g9IjQ3MCIgY3k9IjIxMi40OTIyIiBmaWxsPSJub25lIiByeD0iMyIgcnk9IjMiIHN0eWxlPSJzdHJva2U6IzAzODA0ODtzdHJva2Utd2lkdGg6MS4wOyIvPjx0ZXh0IGZpbGw9IiMwMDAwMDAiIGZvbnQtZmFtaWx5PSJzYW5zLXNlcmlmIiBmb250LXNpemU9IjE0IiBsZW5ndGhBZGp1c3Q9InNwYWNpbmciIHRleHRMZW5ndGg9IjExMiIgeD0iNDc5IiB5PSIyMTYuNzM0NCI+TG9jYXRpb246IHN0cmluZzwvdGV4dD48ZWxsaXBzZSBjeD0iNDcwIiBjeT0iMjI3LjQ3NjYiIGZpbGw9Im5vbmUiIHJ4PSIzIiByeT0iMyIgc3R5bGU9InN0cm9rZTojMDM4MDQ4O3N0cm9rZS13aWR0aDoxLjA7Ii8+PHRleHQgZmlsbD0iIzAwMDAwMCIgZm9udC1mYW1pbHk9InNhbnMtc2VyaWYiIGZvbnQtc2l6ZT0iMTQiIGxlbmd0aEFkanVzdD0ic3BhY2luZyIgdGV4dExlbmd0aD0iNjMiIHg9IjQ3OSIgeT0iMjMxLjcxODgiPlNpemU6IGludDwvdGV4dD48ZWxsaXBzZSBjeD0iNDcwIiBjeT0iMjQyLjQ2MDkiIGZpbGw9Im5vbmUiIHJ4PSIzIiByeT0iMyIgc3R5bGU9InN0cm9rZTojMDM4MDQ4O3N0cm9rZS13aWR0aDoxLjA7Ii8+PHRleHQgZmlsbD0iIzAwMDAwMCIgZm9udC1mYW1pbHk9InNhbnMtc2VyaWYiIGZvbnQtc2l6ZT0iMTQiIGxlbmd0aEFkanVzdD0ic3BhY2luZyIgdGV4dExlbmd0aD0iOTgiIHg9IjQ3OSIgeT0iMjQ2LjcwMzEiPkxheW91dDogc3RyaW5nPC90ZXh0PjxlbGxpcHNlIGN4PSI0NzAiIGN5PSIyNTcuNDQ1MyIgZmlsbD0ibm9uZSIgcng9IjMiIHJ5PSIzIiBzdHlsZT0ic3Ryb2tlOiMwMzgwNDg7c3Ryb2tlLXdpZHRoOjEuMDsiLz48dGV4dCBmaWxsPSIjMDAwMDAwIiBmb250LWZhbWlseT0ic2Fucy1zZXJpZiIgZm9udC1zaXplPSIxNCIgbGVuZ3RoQWRqdXN0PSJzcGFjaW5nIiB0ZXh0TGVuZ3RoPSIxODIiIHg9IjQ3OSIgeT0iMjYxLjY4NzUiPkludmVudG9yeTogbGlzdCZsdDtJbnZlbnRvcnkmZ3Q7PC90ZXh0PjxsaW5lIHN0eWxlPSJzdHJva2U6IzE4MTgxODtzdHJva2Utd2lkdGg6MC41OyIgeDE9IjQ2MCIgeDI9IjY2NiIgeTE9IjI2Ny40Mzc1IiB5Mj0iMjY3LjQzNzUiLz48L2c+PCEtLWNsYXNzIENhc2hSZWdpc3Rlci0tPjxnIGlkPSJlbGVtX0Nhc2hSZWdpc3RlciI+PHJlY3QgY29kZUxpbmU9IjQ0IiBmaWxsPSIjRjFGMUYxIiBoZWlnaHQ9IjkyLjk1MzEiIGlkPSJDYXNoUmVnaXN0ZXIiIHJ4PSIyLjUiIHJ5PSIyLjUiIHN0eWxlPSJzdHJva2U6IzE4MTgxODtzdHJva2Utd2lkdGg6MC41OyIgd2lkdGg9IjE2MCIgeD0iMTQiIHk9IjciLz48ZWxsaXBzZSBjeD0iNDguOCIgY3k9IjIzIiBmaWxsPSIjQUREMUIyIiByeD0iMTEiIHJ5PSIxMSIgc3R5bGU9InN0cm9rZTojMTgxODE4O3N0cm9rZS13aWR0aDoxLjA7Ii8+PHBhdGggZD0iTTQ2LjQyNSwyNy4yNSBMNDYuNDI1LDI5IEw1MS4zNjI1LDI5IEw1MS4zNjI1LDI3LjI1IEw0Ni40MjUsMjcuMjUgWiBNNDcuMTEyNSwyNy45Mzc1IFE0Ny4xMTI1LDI3LjkzNzUgNDcuMTEyNSwxOC43NSBMNDUuMzYyNSwxOC43NSBRNDUuMzYyNSwxOC43NSA0NS4zNjI1LDI3LjkzNzUgTDQ3LjExMjUsMjcuOTM3NSBaIE01MC42NzUsMjcuOTM3NSBMNTIuNDI1LDI3LjkzNzUgUTUyLjQyNSwyNy45Mzc1IDUyLjQyNSwyNS4xMjUgTDUwLjY3NSwyNS4xMjUgUTUwLjY3NSwyNS4xMjUgNTAuNjc1LDI3LjkzNzUgWiBNNTAuNjc1LDE4Ljc1IFE1MC42NzUsMTguNzUgNTAuNjc1LDIxLjU2MjUgTDUyLjQyNSwyMS41NjI1IFE1Mi40MjUsMjEuNTYyNSA1Mi40MjUsMTguNzUgTDUwLjY3NSwxOC43NSBaIE00Ni40MjUsMTkuNDM3NSBMNTEuMzYyNSwxOS40Mzc1IEw1MS4zNjI1LDE3LjY4NzUgTDQ2LjQyNSwxNy42ODc1IEw0Ni40MjUsMTkuNDM3NSBaICIgZmlsbD0iIzAwMDAwMCIvPjx0ZXh0IGZpbGw9IiMwMDAwMDAiIGZvbnQtZmFtaWx5PSJzYW5zLXNlcmlmIiBmb250LXNpemU9IjE0IiBsZW5ndGhBZGp1c3Q9InNwYWNpbmciIHRleHRMZW5ndGg9Ijg0IiB4PSI2Ny4yIiB5PSIyOC43NDIyIj5DYXNoUmVnaXN0ZXI8L3RleHQ+PGxpbmUgc3R5bGU9InN0cm9rZTojMTgxODE4O3N0cm9rZS13aWR0aDowLjU7IiB4MT0iMTUiIHgyPSIxNzMiIHkxPSIzOSIgeTI9IjM5Ii8+PGVsbGlwc2UgY3g9IjI1IiBjeT0iNTEuOTkyMiIgZmlsbD0ibm9uZSIgcng9IjMiIHJ5PSIzIiBzdHlsZT0ic3Ryb2tlOiMwMzgwNDg7c3Ryb2tlLXdpZHRoOjEuMDsiLz48dGV4dCBmaWxsPSIjMDAwMDAwIiBmb250LWZhbWlseT0ic2Fucy1zZXJpZiIgZm9udC1zaXplPSIxNCIgbGVuZ3RoQWRqdXN0PSJzcGFjaW5nIiB0ZXh0TGVuZ3RoPSIxMDUiIHg9IjM0IiB5PSI1Ni4yMzQ0Ij5SZWdpc3RlcklEOiBpbnQ8L3RleHQ+PGVsbGlwc2UgY3g9IjI1IiBjeT0iNjYuOTc2NiIgZmlsbD0ibm9uZSIgcng9IjMiIHJ5PSIzIiBzdHlsZT0ic3Ryb2tlOiMwMzgwNDg7c3Ryb2tlLXdpZHRoOjEuMDsiLz48dGV4dCBmaWxsPSIjMDAwMDAwIiBmb250LWZhbWlseT0ic2Fucy1zZXJpZiIgZm9udC1zaXplPSIxNCIgbGVuZ3RoQWRqdXN0PSJzcGFjaW5nIiB0ZXh0TGVuZ3RoPSIxMjAiIHg9IjM0IiB5PSI3MS4yMTg4Ij5DYXNoaWVyOiBFbXBsb3llZTwvdGV4dD48ZWxsaXBzZSBjeD0iMjUiIGN5PSI4MS45NjA5IiBmaWxsPSJub25lIiByeD0iMyIgcnk9IjMiIHN0eWxlPSJzdHJva2U6IzAzODA0ODtzdHJva2Utd2lkdGg6MS4wOyIvPjx0ZXh0IGZpbGw9IiMwMDAwMDAiIGZvbnQtZmFtaWx5PSJzYW5zLXNlcmlmIiBmb250LXNpemU9IjE0IiBsZW5ndGhBZGp1c3Q9InNwYWNpbmciIHRleHRMZW5ndGg9IjEzNCIgeD0iMzQiIHk9Ijg2LjIwMzEiPlRvdGFsU2FsZXM6IGRlY2ltYWw8L3RleHQ+PGxpbmUgc3R5bGU9InN0cm9rZTojMTgxODE4O3N0cm9rZS13aWR0aDowLjU7IiB4MT0iMTUiIHgyPSIxNzMiIHkxPSI5MS45NTMxIiB5Mj0iOTEuOTUzMSIvPjwvZz48IS0tY2xhc3MgVHJhbnNhY3Rpb24tLT48ZyBpZD0iZWxlbV9UcmFuc2FjdGlvbiI+PHJlY3QgY29kZUxpbmU9IjUwIiBmaWxsPSIjRjFGMUYxIiBoZWlnaHQ9IjEyMi45MjE5IiBpZD0iVHJhbnNhY3Rpb24iIHJ4PSIyLjUiIHJ5PSIyLjUiIHN0eWxlPSJzdHJva2U6IzE4MTgxODtzdHJva2Utd2lkdGg6MC41OyIgd2lkdGg9IjE3NCIgeD0iNyIgeT0iMTYwIi8+PGVsbGlwc2UgY3g9IjUxLjI1IiBjeT0iMTc2IiBmaWxsPSIjQUREMUIyIiByeD0iMTEiIHJ5PSIxMSIgc3R5bGU9InN0cm9rZTojMTgxODE4O3N0cm9rZS13aWR0aDoxLjA7Ii8+PHBhdGggZD0iTTQ4Ljg3NSwxODAuMjUgTDQ4Ljg3NSwxODIgTDUzLjgxMjUsMTgyIEw1My44MTI1LDE4MC4yNSBMNDguODc1LDE4MC4yNSBaIE00OS41NjI1LDE4MC45Mzc1IFE0OS41NjI1LDE4MC45Mzc1IDQ5LjU2MjUsMTcxLjc1IEw0Ny44MTI1LDE3MS43NSBRNDcuODEyNSwxNzEuNzUgNDcuODEyNSwxODAuOTM3NSBMNDkuNTYyNSwxODAuOTM3NSBaIE01My4xMjUsMTgwLjkzNzUgTDU0Ljg3NSwxODAuOTM3NSBRNTQuODc1LDE4MC45Mzc1IDU0Ljg3NSwxNzguMTI1IEw1My4xMjUsMTc4LjEyNSBRNTMuMTI1LDE3OC4xMjUgNTMuMTI1LDE4MC45Mzc1IFogTTUzLjEyNSwxNzEuNzUgUTUzLjEyNSwxNzEuNzUgNTMuMTI1LDE3NC41NjI1IEw1NC44NzUsMTc0LjU2MjUgUTU0Ljg3NSwxNzQuNTYyNSA1NC44NzUsMTcxLjc1IEw1My4xMjUsMTcxLjc1IFogTTQ4Ljg3NSwxNzIuNDM3NSBMNTMuODEyNSwxNzIuNDM3NSBMNTMuODEyNSwxNzAuNjg3NSBMNDguODc1LDE3MC42ODc1IEw0OC44NzUsMTcyLjQzNzUgWiAiIGZpbGw9IiMwMDAwMDAiLz48dGV4dCBmaWxsPSIjMDAwMDAwIiBmb250LWZhbWlseT0ic2Fucy1zZXJpZiIgZm9udC1zaXplPSIxNCIgbGVuZ3RoQWRqdXN0PSJzcGFjaW5nIiB0ZXh0TGVuZ3RoPSI3NyIgeD0iNzEuNzUiIHk9IjE4MS43NDIyIj5UcmFuc2FjdGlvbjwvdGV4dD48bGluZSBzdHlsZT0ic3Ryb2tlOiMxODE4MTg7c3Ryb2tlLXdpZHRoOjAuNTsiIHgxPSI4IiB4Mj0iMTgwIiB5MT0iMTkyIiB5Mj0iMTkyIi8+PGVsbGlwc2UgY3g9IjE4IiBjeT0iMjA0Ljk5MjIiIGZpbGw9Im5vbmUiIHJ4PSIzIiByeT0iMyIgc3R5bGU9InN0cm9rZTojMDM4MDQ4O3N0cm9rZS13aWR0aDoxLjA7Ii8+PHRleHQgZmlsbD0iIzAwMDAwMCIgZm9udC1mYW1pbHk9InNhbnMtc2VyaWYiIGZvbnQtc2l6ZT0iMTQiIGxlbmd0aEFkanVzdD0ic3BhY2luZyIgdGV4dExlbmd0aD0iMTI2IiB4PSIyNyIgeT0iMjA5LjIzNDQiPlRyYW5zYWN0aW9uSUQ6IGludDwvdGV4dD48ZWxsaXBzZSBjeD0iMTgiIGN5PSIyMTkuOTc2NiIgZmlsbD0ibm9uZSIgcng9IjMiIHJ5PSIzIiBzdHlsZT0ic3Ryb2tlOiMwMzgwNDg7c3Ryb2tlLXdpZHRoOjEuMDsiLz48dGV4dCBmaWxsPSIjMDAwMDAwIiBmb250LWZhbWlseT0ic2Fucy1zZXJpZiIgZm9udC1zaXplPSIxNCIgbGVuZ3RoQWRqdXN0PSJzcGFjaW5nIiB0ZXh0TGVuZ3RoPSI3MCIgeD0iMjciIHk9IjIyNC4yMTg4Ij5EYXRlOiBkYXRlPC90ZXh0PjxlbGxpcHNlIGN4PSIxOCIgY3k9IjIzNC45NjA5IiBmaWxsPSJub25lIiByeD0iMyIgcnk9IjMiIHN0eWxlPSJzdHJva2U6IzAzODA0ODtzdHJva2Utd2lkdGg6MS4wOyIvPjx0ZXh0IGZpbGw9IiMwMDAwMDAiIGZvbnQtZmFtaWx5PSJzYW5zLXNlcmlmIiBmb250LXNpemU9IjE0IiBsZW5ndGhBZGp1c3Q9InNwYWNpbmciIHRleHRMZW5ndGg9IjcyIiB4PSIyNyIgeT0iMjM5LjIwMzEiPlRpbWU6IHRpbWU8L3RleHQ+PGVsbGlwc2UgY3g9IjE4IiBjeT0iMjQ5Ljk0NTMiIGZpbGw9Im5vbmUiIHJ4PSIzIiByeT0iMyIgc3R5bGU9InN0cm9rZTojMDM4MDQ4O3N0cm9rZS13aWR0aDoxLjA7Ii8+PHRleHQgZmlsbD0iIzAwMDAwMCIgZm9udC1mYW1pbHk9InNhbnMtc2VyaWYiIGZvbnQtc2l6ZT0iMTQiIGxlbmd0aEFkanVzdD0ic3BhY2luZyIgdGV4dExlbmd0aD0iMTQ4IiB4PSIyNyIgeT0iMjU0LjE4NzUiPlBheW1lbnRNZXRob2Q6IHN0cmluZzwvdGV4dD48ZWxsaXBzZSBjeD0iMTgiIGN5PSIyNjQuOTI5NyIgZmlsbD0ibm9uZSIgcng9IjMiIHJ5PSIzIiBzdHlsZT0ic3Ryb2tlOiMwMzgwNDg7c3Ryb2tlLXdpZHRoOjEuMDsiLz48dGV4dCBmaWxsPSIjMDAwMDAwIiBmb250LWZhbWlseT0ic2Fucy1zZXJpZiIgZm9udC1zaXplPSIxNCIgbGVuZ3RoQWRqdXN0PSJzcGFjaW5nIiB0ZXh0TGVuZ3RoPSIxNDIiIHg9IjI3IiB5PSIyNjkuMTcxOSI+VG90YWxBbW91bnQ6IGRlY2ltYWw8L3RleHQ+PGxpbmUgc3R5bGU9InN0cm9rZTojMTgxODE4O3N0cm9rZS13aWR0aDowLjU7IiB4MT0iOCIgeDI9IjE4MCIgeTE9IjI3NC45MjE5IiB5Mj0iMjc0LjkyMTkiLz48L2c+PCEtLWxpbmsgU3VwZXJtYXJrZXQgdG8gV2FyZWhvdXNlLS0+PGcgaWQ9ImxpbmtfU3VwZXJtYXJrZXRfV2FyZWhvdXNlIj48cGF0aCBjb2RlTGluZT0iNTgiIGQ9Ik00MDcuNjIsMTAwLjMgQzM5NC41MiwxMTguMjYgMzc5LjI5LDEzOS4xNiAzNjUuMjQsMTU4LjQ0ICIgZmlsbD0ibm9uZSIgaWQ9IlN1cGVybWFya2V0LXRvLVdhcmVob3VzZSIgc3R5bGU9InN0cm9rZTojMTgxODE4O3N0cm9rZS13aWR0aDoxLjA7Ii8+PHBvbHlnb24gZmlsbD0ibm9uZSIgcG9pbnRzPSIzNzAuNzEsMTYyLjgxLDM1My4yOCwxNzQuODUsMzU5LjQsMTU0LjU2LDM3MC43MSwxNjIuODEiIHN0eWxlPSJzdHJva2U6IzE4MTgxODtzdHJva2Utd2lkdGg6MS4wOyIvPjwvZz48IS0tbGluayBTdXBlcm1hcmtldCB0byBSZXRhaWxQcmVtaXNlcy0tPjxnIGlkPSJsaW5rX1N1cGVybWFya2V0X1JldGFpbFByZW1pc2VzIj48cGF0aCBjb2RlTGluZT0iNTkiIGQ9Ik00NzQuNjYsMTAwLjMgQzQ4Ni4xNSwxMTUuOTMgNDk5LjI2LDEzMy43NyA1MTEuODEsMTUwLjg1ICIgZmlsbD0ibm9uZSIgaWQ9IlN1cGVybWFya2V0LXRvLVJldGFpbFByZW1pc2VzIiBzdHlsZT0ic3Ryb2tlOiMxODE4MTg7c3Ryb2tlLXdpZHRoOjEuMDsiLz48cG9seWdvbiBmaWxsPSJub25lIiBwb2ludHM9IjUxNy42MywxNDYuOTUsNTIzLjg0LDE2Ny4yMSw1MDYuMzUsMTU1LjI0LDUxNy42MywxNDYuOTUiIHN0eWxlPSJzdHJva2U6IzE4MTgxODtzdHJva2Utd2lkdGg6MS4wOyIvPjwvZz48IS0tbGluayBXYXJlaG91c2UgdG8gR29vZHMtLT48ZyBpZD0ibGlua19XYXJlaG91c2VfR29vZHMiPjxwYXRoIGNvZGVMaW5lPSI2MCIgZD0iTTI3NC4yOCwyNjguNDUgQzI1Ni4zNSwyODYuNDcgMjM1LjE0LDMwNy44IDIxNC40MSwzMjguNjMgIiBmaWxsPSJub25lIiBpZD0iV2FyZWhvdXNlLXRvLUdvb2RzIiBzdHlsZT0ic3Ryb2tlOiMxODE4MTg7c3Ryb2tlLXdpZHRoOjEuMDsiLz48cG9seWdvbiBmaWxsPSJub25lIiBwb2ludHM9IjIxOS4yNiwzMzMuNjksMjAwLjE5LDM0Mi45MywyMDkuMzMsMzIzLjgxLDIxOS4yNiwzMzMuNjkiIHN0eWxlPSJzdHJva2U6IzE4MTgxODtzdHJva2Utd2lkdGg6MS4wOyIvPjwvZz48IS0tbGluayBXYXJlaG91c2UgdG8gRW1wbG95ZWUtLT48ZyBpZD0ibGlua19XYXJlaG91c2VfRW1wbG95ZWUiPjxwYXRoIGNvZGVMaW5lPSI2MSIgZD0iTTM3My42MywyNjguMjEgQzQwMi45NSwyOTMuMTkgNDM5Ljc5LDMyNC41OCA0NzIuMjEsMzUyLjIxICIgZmlsbD0ibm9uZSIgaWQ9IldhcmVob3VzZS10by1FbXBsb3llZSIgc3R5bGU9InN0cm9rZTojMTgxODE4O3N0cm9rZS13aWR0aDoxLjA7Ii8+PHBvbHlnb24gZmlsbD0ibm9uZSIgcG9pbnRzPSI0NzcuMDQsMzQ3LjEzLDQ4Ny43MiwzNjUuNDMsNDY3Ljk2LDM1Ny43OCw0NzcuMDQsMzQ3LjEzIiBzdHlsZT0ic3Ryb2tlOiMxODE4MTg7c3Ryb2tlLXdpZHRoOjEuMDsiLz48L2c+PCEtLXJldmVyc2UgbGluayBXYXJlaG91c2UgdG8gSW52ZW50b3J5LS0+PGcgaWQ9ImxpbmtfV2FyZWhvdXNlX0ludmVudG9yeSI+PHBhdGggY29kZUxpbmU9IjYyIiBkPSJNMzIzLjkxLDI4MS41IEMzMjUuNjgsMzA4LjExIDMyNy43NSwzMzkuMzEgMzI5LjQ2LDM2NS4yICIgZmlsbD0ibm9uZSIgaWQ9IldhcmVob3VzZS1iYWNrdG8tSW52ZW50b3J5IiBzdHlsZT0ic3Ryb2tlOiMxODE4MTg7c3Ryb2tlLXdpZHRoOjEuMDsiLz48cG9seWdvbiBmaWxsPSIjMTgxODE4IiBwb2ludHM9IjMyMy4wNSwyNjguNDUsMzE5LjQ2MTIsMjc0LjcwNDYsMzIzLjg1NDQsMjgwLjQyMywzMjcuNDQzMiwyNzQuMTY4NCwzMjMuMDUsMjY4LjQ1IiBzdHlsZT0ic3Ryb2tlOiMxODE4MTg7c3Ryb2tlLXdpZHRoOjEuMDsiLz48L2c+PCEtLXJldmVyc2UgbGluayBSZXRhaWxQcmVtaXNlcyB0byBJbnZlbnRvcnktLT48ZyBpZD0ibGlua19SZXRhaWxQcmVtaXNlc19JbnZlbnRvcnkiPjxwYXRoIGNvZGVMaW5lPSI2MyIgZD0iTTQ5MC41OCwyODQuMjIgQzQ1OS45OCwzMTAuMjkgNDI0LjcsMzQwLjM1IDM5NS4yOSwzNjUuNDIgIiBmaWxsPSJub25lIiBpZD0iUmV0YWlsUHJlbWlzZXMtYmFja3RvLUludmVudG9yeSIgc3R5bGU9InN0cm9rZTojMTgxODE4O3N0cm9rZS13aWR0aDoxLjA7Ii8+PHBvbHlnb24gZmlsbD0iIzE4MTgxOCIgcG9pbnRzPSI1MDAuNzYsMjc1LjU0LDQ5My41OTkxLDI3Ni4zODk4LDQ5MS42Mjk0LDI4My4zMjY3LDQ5OC43OTAzLDI4Mi40NzY5LDUwMC43NiwyNzUuNTQiIHN0eWxlPSJzdHJva2U6IzE4MTgxODtzdHJva2Utd2lkdGg6MS4wOyIvPjwvZz48IS0tbGluayBSZXRhaWxQcmVtaXNlcyB0byBFbXBsb3llZS0tPjxnIGlkPSJsaW5rX1JldGFpbFByZW1pc2VzX0VtcGxveWVlIj48cGF0aCBjb2RlTGluZT0iNjQiIGQ9Ik01NTkuNDgsMjc1LjU0IEM1NTguMDYsMjk3IDU1Ni4zOSwzMjIuMTQgNTU0Ljg2LDM0NS4yOSAiIGZpbGw9Im5vbmUiIGlkPSJSZXRhaWxQcmVtaXNlcy10by1FbXBsb3llZSIgc3R5bGU9InN0cm9rZTojMTgxODE4O3N0cm9rZS13aWR0aDoxLjA7Ii8+PHBvbHlnb24gZmlsbD0ibm9uZSIgcG9pbnRzPSI1NjEuODMsMzQ1LjkyLDU1My41MiwzNjUuNDIsNTQ3Ljg2LDM0NSw1NjEuODMsMzQ1LjkyIiBzdHlsZT0ic3Ryb2tlOiMxODE4MTg7c3Ryb2tlLXdpZHRoOjEuMDsiLz48L2c+PCEtLWxpbmsgQ2FzaFJlZ2lzdGVyIHRvIFRyYW5zYWN0aW9uLS0+PGcgaWQ9ImxpbmtfQ2FzaFJlZ2lzdGVyX1RyYW5zYWN0aW9uIj48cGF0aCBjb2RlTGluZT0iNjUiIGQ9Ik05NCwxMDAuMyBDOTQsMTEyLjU0IDk0LDEyNi4xMyA5NCwxMzkuNjUgIiBmaWxsPSJub25lIiBpZD0iQ2FzaFJlZ2lzdGVyLXRvLVRyYW5zYWN0aW9uIiBzdHlsZT0ic3Ryb2tlOiMxODE4MTg7c3Ryb2tlLXdpZHRoOjEuMDsiLz48cG9seWdvbiBmaWxsPSJub25lIiBwb2ludHM9IjEwMSwxMzkuOTIsOTQsMTU5LjkyLDg3LDEzOS45MiwxMDEsMTM5LjkyIiBzdHlsZT0ic3Ryb2tlOiMxODE4MTg7c3Ryb2tlLXdpZHRoOjEuMDsiLz48L2c+PCEtLWxpbmsgVHJhbnNhY3Rpb24gdG8gR29vZHMtLT48ZyBpZD0ibGlua19UcmFuc2FjdGlvbl9Hb29kcyI+PHBhdGggY29kZUxpbmU9IjY2IiBkPSJNMTAzLjYsMjgzLjE3IEMxMDUuNiwyOTUuODYgMTA3Ljc3LDMwOS41NCAxMDkuOTIsMzIzLjE0ICIgZmlsbD0ibm9uZSIgaWQ9IlRyYW5zYWN0aW9uLXRvLUdvb2RzIiBzdHlsZT0ic3Ryb2tlOiMxODE4MTg7c3Ryb2tlLXdpZHRoOjEuMDsiLz48cG9seWdvbiBmaWxsPSJub25lIiBwb2ludHM9IjExNi44MywzMjIuMDUsMTEzLjA0LDM0Mi45LDEwMywzMjQuMjQsMTE2LjgzLDMyMi4wNSIgc3R5bGU9InN0cm9rZTojMTgxODE4O3N0cm9rZS13aWR0aDoxLjA7Ii8+PC9nPjwhLS1TUkM9W1pMRkJSZUNtNEJwcDVQblJ5R0RINUliQWVZZmc2ajZHZ2tVanNHT2hPMkZsNGZLLV9ocU82Y0VXaE5mMXNiYXBDcGpoWW5vOG1nR2dxSEhXSmlaWFVuMjZycGllUzFPSTZ3Y0VqYndhZ0s0WTd1ZXBoTjFONVN6ZTdGbVAxQThiVjBBM2NRdThFeGdqNWkxSUFfX185UEdXOURVcEsyZ3NtNFFUS1I0czNQOUJ1WGpOcHRsVU13ckp3WllKa3FVVlJrbnVYSUlDQkNVZ2lQNllFUFVZYTBOYTVkY2VHQjdsT19yUUliRWxXRXN2dmprQUxNTVBvdnljTkhUYmhjbHk3bEhJUkxRRVJjbWlyWUdkTU1aNTg3WVpObEhLbVVOR0lLcHlNZ1R4NTJaRmNGUUVCUmhDSzlwNnU4UWVTZldKc0lFM3A2RTNYSUlhdHhVTW8zVHFvYmtlVFNMLSAtcHl4TjA5YlVwbXNSSklUcUFOb0toRTdzaG1sWUxobWUxZG8xN0FhVmVFRXpjMTBLSERZT3hYWnpHMkZVQlpOV3hKQnVVUlJoV1JnZWg1eFp2cGZyMS1oNUx1S2tiOHlLRlJWSkhIenBGanhGc3FENG14dzV6OXNzdWl6MWp0aUZOdUxIVnM1MjRQUi14Q3ZQMW1pZU1ydlNHTC1iaHN6Qm0wMF0tLT48L2c+PC9zdmc+;" parent="1" vertex="1">
            <mxGeometry width="819" height="610" as="geometry" />
          </mxCell>
        </UserObject>
      </root>
    </mxGraphModel>
  </diagram>
  <diagram id="AgVll7XrfGISdj7PHESZ" name="Page-2">
    <mxGraphModel dx="4051" dy="3272" grid="1" gridSize="10" guides="1" tooltips="1" connect="1" arrows="1" fold="1" page="1" pageScale="1" pageWidth="827" pageHeight="1169" math="0" shadow="0">
      <root>
        <mxCell id="0" />
        <mxCell id="1" parent="0" />
        <UserObject label="" plantUmlData="{&quot;data&quot;:&quot;@startuml SupermarketMerchandiseUseCase\n\nactor Customer\nactor Employee\nactor WarehouseEmployee\nactor RetailEmployee\nactor Auditor\n\nrectangle \&quot;Supermarket System\&quot; {\n  Customer --&gt; (Browse Goods)\n  Customer --&gt; (Purchase Goods)\n  \n  Employee --&gt; (Receive Goods)\n  Employee --&gt; (Audit Goods)\n  Employee --&gt; (Issue Goods)\n  Employee --&gt; (Transfer Goods)\n  Employee --&gt; (Handle Goods)\n  Employee --&gt; (Operate Cash Register)\n  \n  WarehouseEmployee --|&gt; Employee\n  RetailEmployee --|&gt; Employee\n  \n  Auditor --&gt; (Audit Employee Work)\n  Employee --&gt; (Generate Audit Report)\n}\n\nrectangle \&quot;Banking System\&quot; {\n(Employee) --&gt; (Process Transaction)\n}\n\n(Browse Goods) --&gt; (View Goods Details)\n(Purchase Goods) --&gt; (Checkout)\n\n(WarehouseEmployee) --&gt; (Update Inventory)\n(RetailEmployee) --&gt; (Update Inventory)\n\n(Employee) --&gt; (Generate Audit Report)\n(Audit Employee Work) --&gt; (Generate Audit Report)\n\n@enduml\n&quot;,&quot;format&quot;:&quot;svg&quot;}" id="nfaO3vSmtq0hHT3m4Kea-1">
          <mxCell style="shape=image;noLabel=1;verticalAlign=top;aspect=fixed;imageAspect=0;image=data:image/svg+xml,PD94bWwgdmVyc2lvbj0iMS4wIiBlbmNvZGluZz0idXMtYXNjaWkiIHN0YW5kYWxvbmU9Im5vIj8+PHN2ZyB4bWxucz0iaHR0cDovL3d3dy53My5vcmcvMjAwMC9zdmciIHhtbG5zOnhsaW5rPSJodHRwOi8vd3d3LnczLm9yZy8xOTk5L3hsaW5rIiBjb250ZW50U3R5bGVUeXBlPSJ0ZXh0L2NzcyIgaGVpZ2h0PSI0MzlweCIgcHJlc2VydmVBc3BlY3RSYXRpbz0ibm9uZSIgc3R5bGU9IndpZHRoOjIxODJweDtoZWlnaHQ6NDM5cHg7YmFja2dyb3VuZDojRkZGRkZGOyIgdmVyc2lvbj0iMS4xIiB2aWV3Qm94PSIwIDAgMjE4MiA0MzkiIHdpZHRoPSIyMTgycHgiIHpvb21BbmRQYW49Im1hZ25pZnkiPjxkZWZzLz48Zz48IS0tY2x1c3RlciBTdXBlcm1hcmtldCBTeXN0ZW0tLT48ZyBpZD0iY2x1c3Rlcl9TdXBlcm1hcmtldCBTeXN0ZW0iPjxyZWN0IGZpbGw9Im5vbmUiIGhlaWdodD0iMTkxIiByeD0iMi41IiByeT0iMi41IiBzdHlsZT0ic3Ryb2tlOiMxODE4MTg7c3Ryb2tlLXdpZHRoOjEuMDsiIHdpZHRoPSIxNTc5IiB4PSIzMjMiIHk9IjI0Mi41Ii8+PHRleHQgZmlsbD0iIzAwMDAwMCIgZm9udC1mYW1pbHk9InNhbnMtc2VyaWYiIGZvbnQtc2l6ZT0iMTQiIGZvbnQtd2VpZ2h0PSJib2xkIiBsZW5ndGhBZGp1c3Q9InNwYWNpbmciIHRleHRMZW5ndGg9IjEyOCIgeD0iMTA0OC41IiB5PSIyNTcuNzM0NCI+U3VwZXJtYXJrZXQgU3lzdGVtPC90ZXh0PjwvZz48IS0tY2x1c3RlciBCYW5raW5nIFN5c3RlbS0tPjxnIGlkPSJjbHVzdGVyX0JhbmtpbmcgU3lzdGVtIj48cmVjdCBmaWxsPSJub25lIiBoZWlnaHQ9Ijg4IiByeD0iMi41IiByeT0iMi41IiBzdHlsZT0ic3Ryb2tlOiMxODE4MTg7c3Ryb2tlLXdpZHRoOjEuMDsiIHdpZHRoPSIyMDAiIHg9IjE5MjYiIHk9IjI0My41Ii8+PHRleHQgZmlsbD0iIzAwMDAwMCIgZm9udC1mYW1pbHk9InNhbnMtc2VyaWYiIGZvbnQtc2l6ZT0iMTQiIGZvbnQtd2VpZ2h0PSJib2xkIiBsZW5ndGhBZGp1c3Q9InNwYWNpbmciIHRleHRMZW5ndGg9Ijk5IiB4PSIxOTc2LjUiIHk9IjI1OC43MzQ0Ij5CYW5raW5nIFN5c3RlbTwvdGV4dD48L2c+PGcgaWQ9ImVsZW1fQnJvd3NlIEdvb2RzIj48ZWxsaXBzZSBjeD0iNTc3Ljc4MjciIGN5PSIyOTUuNzU2NSIgZmlsbD0iI0YxRjFGMSIgcng9IjY0LjI4MjciIHJ5PSIxNS4yNTY1IiBzdHlsZT0ic3Ryb2tlOiMxODE4MTg7c3Ryb2tlLXdpZHRoOjAuNTsiLz48dGV4dCBmaWxsPSIjMDAwMDAwIiBmb250LWZhbWlseT0ic2Fucy1zZXJpZiIgZm9udC1zaXplPSIxNCIgbGVuZ3RoQWRqdXN0PSJzcGFjaW5nIiB0ZXh0TGVuZ3RoPSI4NSIgeD0iNTM1LjI4MjciIHk9IjI5OS40OTg3Ij5Ccm93c2UgR29vZHM8L3RleHQ+PC9nPjxnIGlkPSJlbGVtX1B1cmNoYXNlIEdvb2RzIj48ZWxsaXBzZSBjeD0iNDA5LjA0NTYiIGN5PSIyOTUuODA5MSIgZmlsbD0iI0YxRjFGMSIgcng9IjY5LjU0NTYiIHJ5PSIxNi4zMDkxIiBzdHlsZT0ic3Ryb2tlOiMxODE4MTg7c3Ryb2tlLXdpZHRoOjAuNTsiLz48dGV4dCBmaWxsPSIjMDAwMDAwIiBmb250LWZhbWlseT0ic2Fucy1zZXJpZiIgZm9udC1zaXplPSIxNCIgbGVuZ3RoQWRqdXN0PSJzcGFjaW5nIiB0ZXh0TGVuZ3RoPSI5OCIgeD0iMzYwLjA0NTYiIHk9IjI5OS41NTEzIj5QdXJjaGFzZSBHb29kczwvdGV4dD48L2c+PGcgaWQ9ImVsZW1fUmVjZWl2ZSBHb29kcyI+PGVsbGlwc2UgY3g9IjE2MDIuMTgzNCIgY3k9IjI5Ni4yMzY3IiBmaWxsPSIjRjFGMUYxIiByeD0iNjYuNjgzNCIgcnk9IjE1LjczNjciIHN0eWxlPSJzdHJva2U6IzE4MTgxODtzdHJva2Utd2lkdGg6MC41OyIvPjx0ZXh0IGZpbGw9IiMwMDAwMDAiIGZvbnQtZmFtaWx5PSJzYW5zLXNlcmlmIiBmb250LXNpemU9IjE0IiBsZW5ndGhBZGp1c3Q9InNwYWNpbmciIHRleHRMZW5ndGg9IjkxIiB4PSIxNTU2LjY4MzQiIHk9IjI5OS45Nzg5Ij5SZWNlaXZlIEdvb2RzPC90ZXh0PjwvZz48ZyBpZD0iZWxlbV9BdWRpdCBHb29kcyI+PGVsbGlwc2UgY3g9IjE0MzkuMTY4NSIgY3k9IjI5Ni4xMzM3IiBmaWxsPSIjRjFGMUYxIiByeD0iNjEuMTY4NSIgcnk9IjE0LjYzMzciIHN0eWxlPSJzdHJva2U6IzE4MTgxODtzdHJva2Utd2lkdGg6MC41OyIvPjx0ZXh0IGZpbGw9IiMwMDAwMDAiIGZvbnQtZmFtaWx5PSJzYW5zLXNlcmlmIiBmb250LXNpemU9IjE0IiBsZW5ndGhBZGp1c3Q9InNwYWNpbmciIHRleHRMZW5ndGg9Ijc3IiB4PSIxNDAwLjY2ODUiIHk9IjI5OS44NzU5Ij5BdWRpdCBHb29kczwvdGV4dD48L2c+PGcgaWQ9ImVsZW1fSXNzdWUgR29vZHMiPjxlbGxpcHNlIGN4PSIxMjgyLjE2ODUiIGN5PSIyOTYuMTMzNyIgZmlsbD0iI0YxRjFGMSIgcng9IjYxLjE2ODUiIHJ5PSIxNC42MzM3IiBzdHlsZT0ic3Ryb2tlOiMxODE4MTg7c3Ryb2tlLXdpZHRoOjAuNTsiLz48dGV4dCBmaWxsPSIjMDAwMDAwIiBmb250LWZhbWlseT0ic2Fucy1zZXJpZiIgZm9udC1zaXplPSIxNCIgbGVuZ3RoQWRqdXN0PSJzcGFjaW5nIiB0ZXh0TGVuZ3RoPSI3NyIgeD0iMTI0My42Njg1IiB5PSIyOTkuODc1OSI+SXNzdWUgR29vZHM8L3RleHQ+PC9nPjxnIGlkPSJlbGVtX1RyYW5zZmVyIEdvb2RzIj48ZWxsaXBzZSBjeD0iMTExNi4wNDU2IiBjeT0iMjk1LjgwOTEiIGZpbGw9IiNGMUYxRjEiIHJ4PSI2OS41NDU2IiByeT0iMTYuMzA5MSIgc3R5bGU9InN0cm9rZTojMTgxODE4O3N0cm9rZS13aWR0aDowLjU7Ii8+PHRleHQgZmlsbD0iIzAwMDAwMCIgZm9udC1mYW1pbHk9InNhbnMtc2VyaWYiIGZvbnQtc2l6ZT0iMTQiIGxlbmd0aEFkanVzdD0ic3BhY2luZyIgdGV4dExlbmd0aD0iOTgiIHg9IjEwNjcuMDQ1NiIgeT0iMjk5LjU1MTMiPlRyYW5zZmVyIEdvb2RzPC90ZXh0PjwvZz48ZyBpZD0iZWxlbV9IYW5kbGUgR29vZHMiPjxlbGxpcHNlIGN4PSI5NDYuODg3OCIgY3k9IjI5Ni4xNzc2IiBmaWxsPSIjRjFGMUYxIiByeD0iNjMuODg3OCIgcnk9IjE1LjE3NzYiIHN0eWxlPSJzdHJva2U6IzE4MTgxODtzdHJva2Utd2lkdGg6MC41OyIvPjx0ZXh0IGZpbGw9IiMwMDAwMDAiIGZvbnQtZmFtaWx5PSJzYW5zLXNlcmlmIiBmb250LXNpemU9IjE0IiBsZW5ndGhBZGp1c3Q9InNwYWNpbmciIHRleHRMZW5ndGg9Ijg0IiB4PSI5MDQuODg3OCIgeT0iMjk5LjkxOTciPkhhbmRsZSBHb29kczwvdGV4dD48L2c+PGcgaWQ9ImVsZW1fT3BlcmF0ZSBDYXNoIFJlZ2lzdGVyIj48ZWxsaXBzZSBjeD0iMTc5NC44ODM5IiBjeT0iMjk2LjA3NjgiIGZpbGw9IiNGMUYxRjEiIHJ4PSI5MC44ODM5IiByeT0iMjAuNTc2OCIgc3R5bGU9InN0cm9rZTojMTgxODE4O3N0cm9rZS13aWR0aDowLjU7Ii8+PHRleHQgZmlsbD0iIzAwMDAwMCIgZm9udC1mYW1pbHk9InNhbnMtc2VyaWYiIGZvbnQtc2l6ZT0iMTQiIGxlbmd0aEFkanVzdD0ic3BhY2luZyIgdGV4dExlbmd0aD0iMTQ3IiB4PSIxNzIxLjM4MzkiIHk9IjI5OS44MTkiPk9wZXJhdGUgQ2FzaCBSZWdpc3RlcjwvdGV4dD48L2c+PGcgaWQ9ImVsZW1fQXVkaXQgRW1wbG95ZWUgV29yayI+PGVsbGlwc2UgY3g9Ijc2My4wNTA3IiBjeT0iMjk1LjkxMDEiIGZpbGw9IiNGMUYxRjEiIHJ4PSI4NS4wNTA3IiByeT0iMTkuNDEwMSIgc3R5bGU9InN0cm9rZTojMTgxODE4O3N0cm9rZS13aWR0aDowLjU7Ii8+PHRleHQgZmlsbD0iIzAwMDAwMCIgZm9udC1mYW1pbHk9InNhbnMtc2VyaWYiIGZvbnQtc2l6ZT0iMTQiIGxlbmd0aEFkanVzdD0ic3BhY2luZyIgdGV4dExlbmd0aD0iMTM0IiB4PSI2OTYuMDUwNyIgeT0iMjk5LjY1MjMiPkF1ZGl0IEVtcGxveWVlIFdvcms8L3RleHQ+PC9nPjxnIGlkPSJlbGVtX0dlbmVyYXRlIEF1ZGl0IFJlcG9ydCI+PGVsbGlwc2UgY3g9IjE3OTQuODgzOSIgY3k9IjM5Ny4wNzY4IiBmaWxsPSIjRjFGMUYxIiByeD0iOTAuODgzOSIgcnk9IjIwLjU3NjgiIHN0eWxlPSJzdHJva2U6IzE4MTgxODtzdHJva2Utd2lkdGg6MC41OyIvPjx0ZXh0IGZpbGw9IiMwMDAwMDAiIGZvbnQtZmFtaWx5PSJzYW5zLXNlcmlmIiBmb250LXNpemU9IjE0IiBsZW5ndGhBZGp1c3Q9InNwYWNpbmciIHRleHRMZW5ndGg9IjE0NyIgeD0iMTcyMS4zODM5IiB5PSI0MDAuODE5Ij5HZW5lcmF0ZSBBdWRpdCBSZXBvcnQ8L3RleHQ+PC9nPjxnIGlkPSJlbGVtX1Byb2Nlc3MgVHJhbnNhY3Rpb24iPjxlbGxpcHNlIGN4PSIyMDI2LjEwNjIiIGN5PSIyOTUuODIxMiIgZmlsbD0iI0YxRjFGMSIgcng9Ijg0LjYwNjIiIHJ5PSIxOS4zMjEyIiBzdHlsZT0ic3Ryb2tlOiMxODE4MTg7c3Ryb2tlLXdpZHRoOjAuNTsiLz48dGV4dCBmaWxsPSIjMDAwMDAwIiBmb250LWZhbWlseT0ic2Fucy1zZXJpZiIgZm9udC1zaXplPSIxNCIgbGVuZ3RoQWRqdXN0PSJzcGFjaW5nIiB0ZXh0TGVuZ3RoPSIxMzMiIHg9IjE5NTkuNjA2MiIgeT0iMjk5LjU2MzQiPlByb2Nlc3MgVHJhbnNhY3Rpb248L3RleHQ+PC9nPjwhLS1lbnRpdHkgQ3VzdG9tZXItLT48ZyBpZD0iZWxlbV9DdXN0b21lciI+PGVsbGlwc2UgY3g9IjQ5NCIgY3k9IjE0OSIgZmlsbD0iI0YxRjFGMSIgcng9IjgiIHJ5PSI4IiBzdHlsZT0ic3Ryb2tlOiMxODE4MTg7c3Ryb2tlLXdpZHRoOjAuNTsiLz48cGF0aCBkPSJNNDk0LDE1NyBMNDk0LDE4NCBNNDgxLDE2NSBMNTA3LDE2NSBNNDk0LDE4NCBMNDgxLDE5OSBNNDk0LDE4NCBMNTA3LDE5OSAiIGZpbGw9Im5vbmUiIHN0eWxlPSJzdHJva2U6IzE4MTgxODtzdHJva2Utd2lkdGg6MC41OyIvPjx0ZXh0IGZpbGw9IiMwMDAwMDAiIGZvbnQtZmFtaWx5PSJzYW5zLXNlcmlmIiBmb250LXNpemU9IjE0IiBsZW5ndGhBZGp1c3Q9InNwYWNpbmciIHRleHRMZW5ndGg9IjU3IiB4PSI0NjUuNSIgeT0iMjEzLjczNDQiPkN1c3RvbWVyPC90ZXh0PjwvZz48IS0tZW50aXR5IEVtcGxveWVlLS0+PGcgaWQ9ImVsZW1fRW1wbG95ZWUiPjxlbGxpcHNlIGN4PSIxOTEwIiBjeT0iMTQ5IiBmaWxsPSIjRjFGMUYxIiByeD0iOCIgcnk9IjgiIHN0eWxlPSJzdHJva2U6IzE4MTgxODtzdHJva2Utd2lkdGg6MC41OyIvPjxwYXRoIGQ9Ik0xOTEwLDE1NyBMMTkxMCwxODQgTTE4OTcsMTY1IEwxOTIzLDE2NSBNMTkxMCwxODQgTDE4OTcsMTk5IE0xOTEwLDE4NCBMMTkyMywxOTkgIiBmaWxsPSJub25lIiBzdHlsZT0ic3Ryb2tlOiMxODE4MTg7c3Ryb2tlLXdpZHRoOjAuNTsiLz48dGV4dCBmaWxsPSIjMDAwMDAwIiBmb250LWZhbWlseT0ic2Fucy1zZXJpZiIgZm9udC1zaXplPSIxNCIgbGVuZ3RoQWRqdXN0PSJzcGFjaW5nIiB0ZXh0TGVuZ3RoPSI1NyIgeD0iMTg4MS41IiB5PSIyMTMuNzM0NCI+RW1wbG95ZWU8L3RleHQ+PC9nPjwhLS1lbnRpdHkgV2FyZWhvdXNlRW1wbG95ZWUtLT48ZyBpZD0iZWxlbV9XYXJlaG91c2VFbXBsb3llZSI+PGVsbGlwc2UgY3g9IjE5MDgiIGN5PSIxNCIgZmlsbD0iI0YxRjFGMSIgcng9IjgiIHJ5PSI4IiBzdHlsZT0ic3Ryb2tlOiMxODE4MTg7c3Ryb2tlLXdpZHRoOjAuNTsiLz48cGF0aCBkPSJNMTkwOCwyMiBMMTkwOCw0OSBNMTg5NSwzMCBMMTkyMSwzMCBNMTkwOCw0OSBMMTg5NSw2NCBNMTkwOCw0OSBMMTkyMSw2NCAiIGZpbGw9Im5vbmUiIHN0eWxlPSJzdHJva2U6IzE4MTgxODtzdHJva2Utd2lkdGg6MC41OyIvPjx0ZXh0IGZpbGw9IiMwMDAwMDAiIGZvbnQtZmFtaWx5PSJzYW5zLXNlcmlmIiBmb250LXNpemU9IjE0IiBsZW5ndGhBZGp1c3Q9InNwYWNpbmciIHRleHRMZW5ndGg9IjEyMCIgeD0iMTg0OCIgeT0iNzguNzM0NCI+V2FyZWhvdXNlRW1wbG95ZWU8L3RleHQ+PC9nPjwhLS1lbnRpdHkgUmV0YWlsRW1wbG95ZWUtLT48ZyBpZD0iZWxlbV9SZXRhaWxFbXBsb3llZSI+PGVsbGlwc2UgY3g9IjIwNTMiIGN5PSIxNCIgZmlsbD0iI0YxRjFGMSIgcng9IjgiIHJ5PSI4IiBzdHlsZT0ic3Ryb2tlOiMxODE4MTg7c3Ryb2tlLXdpZHRoOjAuNTsiLz48cGF0aCBkPSJNMjA1MywyMiBMMjA1Myw0OSBNMjA0MCwzMCBMMjA2NiwzMCBNMjA1Myw0OSBMMjA0MCw2NCBNMjA1Myw0OSBMMjA2Niw2NCAiIGZpbGw9Im5vbmUiIHN0eWxlPSJzdHJva2U6IzE4MTgxODtzdHJva2Utd2lkdGg6MC41OyIvPjx0ZXh0IGZpbGw9IiMwMDAwMDAiIGZvbnQtZmFtaWx5PSJzYW5zLXNlcmlmIiBmb250LXNpemU9IjE0IiBsZW5ndGhBZGp1c3Q9InNwYWNpbmciIHRleHRMZW5ndGg9Ijk5IiB4PSIyMDAzLjUiIHk9Ijc4LjczNDQiPlJldGFpbEVtcGxveWVlPC90ZXh0PjwvZz48IS0tZW50aXR5IEF1ZGl0b3ItLT48ZyBpZD0iZWxlbV9BdWRpdG9yIj48ZWxsaXBzZSBjeD0iNzYzIiBjeT0iMTQ5IiBmaWxsPSIjRjFGMUYxIiByeD0iOCIgcnk9IjgiIHN0eWxlPSJzdHJva2U6IzE4MTgxODtzdHJva2Utd2lkdGg6MC41OyIvPjxwYXRoIGQ9Ik03NjMsMTU3IEw3NjMsMTg0IE03NTAsMTY1IEw3NzYsMTY1IE03NjMsMTg0IEw3NTAsMTk5IE03NjMsMTg0IEw3NzYsMTk5ICIgZmlsbD0ibm9uZSIgc3R5bGU9InN0cm9rZTojMTgxODE4O3N0cm9rZS13aWR0aDowLjU7Ii8+PHRleHQgZmlsbD0iIzAwMDAwMCIgZm9udC1mYW1pbHk9InNhbnMtc2VyaWYiIGZvbnQtc2l6ZT0iMTQiIGxlbmd0aEFkanVzdD0ic3BhY2luZyIgdGV4dExlbmd0aD0iNDkiIHg9IjczOC41IiB5PSIyMTMuNzM0NCI+QXVkaXRvcjwvdGV4dD48L2c+PGcgaWQ9ImVsZW1fVmlldyBHb29kcyBEZXRhaWxzIj48ZWxsaXBzZSBjeD0iMjI0Ljk1MyIgY3k9IjM5Ni43OTA2IiBmaWxsPSIjRjFGMUYxIiByeD0iODEuOTUzIiByeT0iMTguNzkwNiIgc3R5bGU9InN0cm9rZTojMTgxODE4O3N0cm9rZS13aWR0aDowLjU7Ii8+PHRleHQgZmlsbD0iIzAwMDAwMCIgZm9udC1mYW1pbHk9InNhbnMtc2VyaWYiIGZvbnQtc2l6ZT0iMTQiIGxlbmd0aEFkanVzdD0ic3BhY2luZyIgdGV4dExlbmd0aD0iMTI3IiB4PSIxNjEuNDUzIiB5PSI0MDAuNTMyOCI+VmlldyBHb29kcyBEZXRhaWxzPC90ZXh0PjwvZz48ZyBpZD0iZWxlbV9DaGVja291dCI+PGVsbGlwc2UgY3g9IjU3LjA4MzMiIGN5PSIzOTcuMDk1NiIgZmlsbD0iI0YxRjFGMSIgcng9IjUxLjA4MzMiIHJ5PSIxMy41OTU2IiBzdHlsZT0ic3Ryb2tlOiMxODE4MTg7c3Ryb2tlLXdpZHRoOjAuNTsiLz48dGV4dCBmaWxsPSIjMDAwMDAwIiBmb250LWZhbWlseT0ic2Fucy1zZXJpZiIgZm9udC1zaXplPSIxNCIgbGVuZ3RoQWRqdXN0PSJzcGFjaW5nIiB0ZXh0TGVuZ3RoPSI1NiIgeD0iMjkuMDgzMyIgeT0iNDAwLjgzNzciPkNoZWNrb3V0PC90ZXh0PjwvZz48ZyBpZD0iZWxlbV9VcGRhdGUgSW52ZW50b3J5Ij48ZWxsaXBzZSBjeD0iMjA1MS45Mzg0IiBjeT0iMTc3Ljk4NzciIGZpbGw9IiNGMUYxRjEiIHJ4PSI3NS40Mzg0IiByeT0iMTcuNDg3NyIgc3R5bGU9InN0cm9rZTojMTgxODE4O3N0cm9rZS13aWR0aDowLjU7Ii8+PHRleHQgZmlsbD0iIzAwMDAwMCIgZm9udC1mYW1pbHk9InNhbnMtc2VyaWYiIGZvbnQtc2l6ZT0iMTQiIGxlbmd0aEFkanVzdD0ic3BhY2luZyIgdGV4dExlbmd0aD0iMTEyIiB4PSIxOTk1LjkzODQiIHk9IjE4MS43Mjk5Ij5VcGRhdGUgSW52ZW50b3J5PC90ZXh0PjwvZz48IS0tbGluayBDdXN0b21lciB0byBCcm93c2UgR29vZHMtLT48ZyBpZD0ibGlua19DdXN0b21lcl9Ccm93c2UgR29vZHMiPjxwYXRoIGQ9Ik01MjAuNTgsMjE1LjcgQzUzNS4xNiwyMzUuODUgNTUyLjYzLDI1OS45NyA1NjQuNDQsMjc2LjI4ICIgZmlsbD0ibm9uZSIgaWQ9IkN1c3RvbWVyLXRvLUJyb3dzZSBHb29kcyIgc3R5bGU9InN0cm9rZTojMTgxODE4O3N0cm9rZS13aWR0aDoxLjA7Ii8+PHBvbHlnb24gZmlsbD0iIzE4MTgxOCIgcG9pbnRzPSI1NjcuNjIsMjgwLjY2LDU2NS41NTc0LDI3MS4wMjk2LDU2NC42Nzc0LDI3Ni42MTc2LDU1OS4wODk0LDI3NS43Mzc2LDU2Ny42MiwyODAuNjYiIHN0eWxlPSJzdHJva2U6IzE4MTgxODtzdHJva2Utd2lkdGg6MS4wOyIvPjwvZz48IS0tbGluayBDdXN0b21lciB0byBQdXJjaGFzZSBHb29kcy0tPjxnIGlkPSJsaW5rX0N1c3RvbWVyX1B1cmNoYXNlIEdvb2RzIj48cGF0aCBkPSJNNDY3LjExLDIxNS43IEM0NTIuNywyMzUuMzYgNDM1LjUyLDI1OC44MSA0MjMuNTksMjc1LjA4ICIgZmlsbD0ibm9uZSIgaWQ9IkN1c3RvbWVyLXRvLVB1cmNoYXNlIEdvb2RzIiBzdHlsZT0ic3Ryb2tlOiMxODE4MTg7c3Ryb2tlLXdpZHRoOjEuMDsiLz48cG9seWdvbiBmaWxsPSIjMTgxODE4IiBwb2ludHM9IjQyMC4zOCwyNzkuNDgsNDI4LjkzMDEsMjc0LjU5MTgsNDIzLjMzODcsMjc1LjQ0OTMsNDIyLjQ4MTEsMjY5Ljg1NzksNDIwLjM4LDI3OS40OCIgc3R5bGU9InN0cm9rZTojMTgxODE4O3N0cm9rZS13aWR0aDoxLjA7Ii8+PC9nPjwhLS1saW5rIEVtcGxveWVlIHRvIFJlY2VpdmUgR29vZHMtLT48ZyBpZD0ibGlua19FbXBsb3llZV9SZWNlaXZlIEdvb2RzIj48cGF0aCBkPSJNMTg4MS40MSwxODIuNjIgQzE4MzcuODUsMTg4LjkgMTc1Mi45NiwyMDQuMTUgMTY4NywyMzQuNSBDMTY2Mi44OCwyNDUuNiAxNjM4LjUyLDI2My44MiAxNjIyLjA5LDI3Ny4zNyAiIGZpbGw9Im5vbmUiIGlkPSJFbXBsb3llZS10by1SZWNlaXZlIEdvb2RzIiBzdHlsZT0ic3Ryb2tlOiMxODE4MTg7c3Ryb2tlLXdpZHRoOjEuMDsiLz48cG9seWdvbiBmaWxsPSIjMTgxODE4IiBwb2ludHM9IjE2MTguMDksMjgwLjcxLDE2MjcuNTY1NywyNzguMDI0NywxNjIxLjkzMjMsMjc3LjUxMDUsMTYyMi40NDY1LDI3MS44NzcsMTYxOC4wOSwyODAuNzEiIHN0eWxlPSJzdHJva2U6IzE4MTgxODtzdHJva2Utd2lkdGg6MS4wOyIvPjwvZz48IS0tbGluayBFbXBsb3llZSB0byBBdWRpdCBHb29kcy0tPjxnIGlkPSJsaW5rX0VtcGxveWVlX0F1ZGl0IEdvb2RzIj48cGF0aCBkPSJNMTg4MS4xNCwxNzguMTkgQzE4MTQuNCwxNzcuMzMgMTY0NS40MSwxODEuMDcgMTUxOCwyMzQuNSBDMTQ5My43NywyNDQuNjYgMTQ3MC40NCwyNjQuMTEgMTQ1NS41LDI3OC4yMiAiIGZpbGw9Im5vbmUiIGlkPSJFbXBsb3llZS10by1BdWRpdCBHb29kcyIgc3R5bGU9InN0cm9rZTojMTgxODE4O3N0cm9rZS13aWR0aDoxLjA7Ii8+PHBvbHlnb24gZmlsbD0iIzE4MTgxOCIgcG9pbnRzPSIxNDUxLjg5LDI4MS42OCwxNDYxLjE0NTEsMjc4LjMxMjIsMTQ1NS40ODkyLDI3OC4yMDkzLDE0NTUuNTkyMSwyNzIuNTUzNCwxNDUxLjg5LDI4MS42OCIgc3R5bGU9InN0cm9rZTojMTgxODE4O3N0cm9rZS13aWR0aDoxLjA7Ii8+PC9nPjwhLS1saW5rIEVtcGxveWVlIHRvIElzc3VlIEdvb2RzLS0+PGcgaWQ9ImxpbmtfRW1wbG95ZWVfSXNzdWUgR29vZHMiPjxwYXRoIGQ9Ik0xODgxLjM3LDE3OS44NCBDMTc4Mi42NSwxODMuMDUgMTQ1Ny4zLDE5Ni4zNSAxMzYxLDIzNC41IEMxMzM2LjQyLDI0NC4yNCAxMzEzLDI2My45NSAxMjk4LjEzLDI3OC4yNCAiIGZpbGw9Im5vbmUiIGlkPSJFbXBsb3llZS10by1Jc3N1ZSBHb29kcyIgc3R5bGU9InN0cm9rZTojMTgxODE4O3N0cm9rZS13aWR0aDoxLjA7Ii8+PHBvbHlnb24gZmlsbD0iIzE4MTgxOCIgcG9pbnRzPSIxMjk0LjU0LDI4MS43NCwxMzAzLjc3NDYsMjc4LjMxNjQsMTI5OC4xMTgyLDI3OC4yNDc3LDEyOTguMTg2OSwyNzIuNTkxMiwxMjk0LjU0LDI4MS43NCIgc3R5bGU9InN0cm9rZTojMTgxODE4O3N0cm9rZS13aWR0aDoxLjA7Ii8+PC9nPjwhLS1saW5rIEVtcGxveWVlIHRvIFRyYW5zZmVyIEdvb2RzLS0+PGcgaWQ9ImxpbmtfRW1wbG95ZWVfVHJhbnNmZXIgR29vZHMiPjxwYXRoIGQ9Ik0xODgxLjIsMTc5LjI5IEMxNzY1LjE3LDE4MC43NCAxMzMyLjA2LDE4OS4xNSAxMjA0LDIzNC41IEMxMTc4LjM4LDI0My41NyAxMTUzLjI1LDI2Mi4wOSAxMTM2LjQ1LDI3Ni4yNiAiIGZpbGw9Im5vbmUiIGlkPSJFbXBsb3llZS10by1UcmFuc2ZlciBHb29kcyIgc3R5bGU9InN0cm9rZTojMTgxODE4O3N0cm9rZS13aWR0aDoxLjA7Ii8+PHBvbHlnb24gZmlsbD0iIzE4MTgxOCIgcG9pbnRzPSIxMTMyLjM2LDI3OS43NiwxMTQxLjc5NjUsMjc2LjkzOTksMTEzNi4xNTYzLDI3Ni41MDYsMTEzNi41OTAxLDI3MC44NjU5LDExMzIuMzYsMjc5Ljc2IiBzdHlsZT0ic3Ryb2tlOiMxODE4MTg7c3Ryb2tlLXdpZHRoOjEuMDsiLz48L2c+PCEtLWxpbmsgRW1wbG95ZWUgdG8gSGFuZGxlIEdvb2RzLS0+PGcgaWQ9ImxpbmtfRW1wbG95ZWVfSGFuZGxlIEdvb2RzIj48cGF0aCBkPSJNMTg4MS41LDE3OC42NSBDMTc0OC43OSwxNzcuMzQgMTE5MSwxNzUuNSAxMDI5LDIzNC41IEMxMDAzLjcxLDI0My43MSA5NzkuNTMsMjYzLjMzIDk2NC4wNiwyNzcuNzUgIiBmaWxsPSJub25lIiBpZD0iRW1wbG95ZWUtdG8tSGFuZGxlIEdvb2RzIiBzdHlsZT0ic3Ryb2tlOiMxODE4MTg7c3Ryb2tlLXdpZHRoOjEuMDsiLz48cG9seWdvbiBmaWxsPSIjMTgxODE4IiBwb2ludHM9Ijk2MC4zMiwyODEuMjksOTY5LjYwODksMjc4LjAxNjMsOTYzLjk1NDMsMjc3Ljg1Niw5NjQuMTE0NSwyNzIuMjAxNSw5NjAuMzIsMjgxLjI5IiBzdHlsZT0ic3Ryb2tlOiMxODE4MTg7c3Ryb2tlLXdpZHRoOjEuMDsiLz48L2c+PCEtLWxpbmsgRW1wbG95ZWUgdG8gT3BlcmF0ZSBDYXNoIFJlZ2lzdGVyLS0+PGcgaWQ9ImxpbmtfRW1wbG95ZWVfT3BlcmF0ZSBDYXNoIFJlZ2lzdGVyIj48cGF0aCBkPSJNMTg4MS4yOCwyMDcuOTcgQzE4NjEuNTcsMjI3Ljg1IDE4MzUuNzgsMjUzLjg2IDE4MTcuNTUsMjcyLjI1ICIgZmlsbD0ibm9uZSIgaWQ9IkVtcGxveWVlLXRvLU9wZXJhdGUgQ2FzaCBSZWdpc3RlciIgc3R5bGU9InN0cm9rZTojMTgxODE4O3N0cm9rZS13aWR0aDoxLjA7Ii8+PHBvbHlnb24gZmlsbD0iIzE4MTgxOCIgcG9pbnRzPSIxODE0LjAxLDI3NS44MywxODIzLjE5NTIsMjcyLjI3NTksMTgxNy41Mzg0LDI3Mi4yODczLDE4MTcuNTI3LDI2Ni42MzA1LDE4MTQuMDEsMjc1LjgzIiBzdHlsZT0ic3Ryb2tlOiMxODE4MTg7c3Ryb2tlLXdpZHRoOjEuMDsiLz48L2c+PCEtLWxpbmsgV2FyZWhvdXNlRW1wbG95ZWUgdG8gRW1wbG95ZWUtLT48ZyBpZD0ibGlua19XYXJlaG91c2VFbXBsb3llZV9FbXBsb3llZSI+PHBhdGggZD0iTTE5MDguNTUsODAuNjkgQzE5MDguNzQsOTIuOTEgMTkwOC45NCwxMDYuODEgMTkwOS4xNSwxMjAuMTggIiBmaWxsPSJub25lIiBpZD0iV2FyZWhvdXNlRW1wbG95ZWUtdG8tRW1wbG95ZWUiIHN0eWxlPSJzdHJva2U6IzE4MTgxODtzdHJva2Utd2lkdGg6MS4wOyIvPjxwb2x5Z29uIGZpbGw9Im5vbmUiIHBvaW50cz0iMTkxNi4xNSwxMjAuMzIsMTkwOS40NSwxNDAuNDIsMTkwMi4xNSwxMjAuNTMsMTkxNi4xNSwxMjAuMzIiIHN0eWxlPSJzdHJva2U6IzE4MTgxODtzdHJva2Utd2lkdGg6MS4wOyIvPjwvZz48IS0tbGluayBSZXRhaWxFbXBsb3llZSB0byBFbXBsb3llZS0tPjxnIGlkPSJsaW5rX1JldGFpbEVtcGxveWVlX0VtcGxveWVlIj48cGF0aCBkPSJNMjAxMy41NSw4MC42OSBDMTk5NC45OCw5Ny45NiAxOTcyLjc4LDExOC42MSAxOTUzLjcxLDEzNi4zNSAiIGZpbGw9Im5vbmUiIGlkPSJSZXRhaWxFbXBsb3llZS10by1FbXBsb3llZSIgc3R5bGU9InN0cm9rZTojMTgxODE4O3N0cm9rZS13aWR0aDoxLjA7Ii8+PHBvbHlnb24gZmlsbD0ibm9uZSIgcG9pbnRzPSIxOTU4LjMxLDE0MS42MywxOTM4Ljg5LDE1MC4xMywxOTQ4Ljc3LDEzMS4zOCwxOTU4LjMxLDE0MS42MyIgc3R5bGU9InN0cm9rZTojMTgxODE4O3N0cm9rZS13aWR0aDoxLjA7Ii8+PC9nPjwhLS1saW5rIEF1ZGl0b3IgdG8gQXVkaXQgRW1wbG95ZWUgV29yay0tPjxnIGlkPSJsaW5rX0F1ZGl0b3JfQXVkaXQgRW1wbG95ZWUgV29yayI+PHBhdGggZD0iTTc2MywyMTUuNyBDNzYzLDIzMy44MyA3NjMsMjU1LjE4IDc2MywyNzEuMTYgIiBmaWxsPSJub25lIiBpZD0iQXVkaXRvci10by1BdWRpdCBFbXBsb3llZSBXb3JrIiBzdHlsZT0ic3Ryb2tlOiMxODE4MTg7c3Ryb2tlLXdpZHRoOjEuMDsiLz48cG9seWdvbiBmaWxsPSIjMTgxODE4IiBwb2ludHM9Ijc2MywyNzYuMzYsNzY3LDI2Ny4zNiw3NjMsMjcxLjM2LDc1OSwyNjcuMzYsNzYzLDI3Ni4zNiIgc3R5bGU9InN0cm9rZTojMTgxODE4O3N0cm9rZS13aWR0aDoxLjA7Ii8+PC9nPjwhLS1saW5rIEVtcGxveWVlIHRvIEdlbmVyYXRlIEF1ZGl0IFJlcG9ydC0tPjxnIGlkPSJsaW5rX0VtcGxveWVlX0dlbmVyYXRlIEF1ZGl0IFJlcG9ydCI+PHBhdGggZD0iTTE5MzguNzYsMjE0LjEyIEMxOTM5LjgzLDIxNC42MSAxOTQwLjkxLDIxNS4wNyAxOTQyLDIxNS41IEMxOTc2LjczLDIyOS4yNCAyMDg0LjEzLDIwNi42NCAyMTA5LDIzNC41IEMyMTQwLjA4LDI2OS4zMSAyMTM5LjA5LDMwMy44MyAyMTA5LDMzOS41IEMyMDgwLjcyLDM3My4wMiAxOTcxLjM2LDM4Ni42NSAxODg5LjQ0LDM5Mi4yICIgZmlsbD0ibm9uZSIgaWQ9IkVtcGxveWVlLXRvLUdlbmVyYXRlIEF1ZGl0IFJlcG9ydCIgc3R5bGU9InN0cm9rZTojMTgxODE4O3N0cm9rZS13aWR0aDoxLjA7Ii8+PHBvbHlnb24gZmlsbD0iIzE4MTgxOCIgcG9pbnRzPSIxODg0LjA4LDM5Mi41NSwxODkzLjMyMzYsMzk1Ljk0OTUsMTg4OS4wNjkyLDM5Mi4yMjEyLDE4OTIuNzk3NSwzODcuOTY2OCwxODg0LjA4LDM5Mi41NSIgc3R5bGU9InN0cm9rZTojMTgxODE4O3N0cm9rZS13aWR0aDoxLjA7Ii8+PC9nPjwhLS1saW5rIEVtcGxveWVlIHRvIEdlbmVyYXRlIEF1ZGl0IFJlcG9ydC0tPjxnIGlkPSJsaW5rX0VtcGxveWVlX0dlbmVyYXRlIEF1ZGl0IFJlcG9ydCI+PHBhdGggZD0iTTE5MzguNjYsMTkyLjA0IEMxOTUwLjU5LDIwMC4yMiAxOTYzLjU5LDIxMC4xOSAxOTc3LDIxNS41IEMyMDExLjczLDIyOS4yNCAyMTE5LjEzLDIwNi42NCAyMTQ0LDIzNC41IEMyMTc1LjA4LDI2OS4zMSAyMTc0LjA5LDMwMy44MyAyMTQ0LDMzOS41IEMyMTEyLjc4LDM3Ni41MSAxOTgyLjcxLDM4OS4yOCAxODkwLjMxLDM5My42OCAiIGZpbGw9Im5vbmUiIGlkPSJFbXBsb3llZS10by1HZW5lcmF0ZSBBdWRpdCBSZXBvcnQtMSIgc3R5bGU9InN0cm9rZTojMTgxODE4O3N0cm9rZS13aWR0aDoxLjA7Ii8+PHBvbHlnb24gZmlsbD0iIzE4MTgxOCIgcG9pbnRzPSIxODg1LjExLDM5My45MiwxODk0LjI4MzMsMzk3LjUwNDgsMTg5MC4xMDQ4LDM5My42OTE3LDE4OTMuOTE3OSwzODkuNTEzMiwxODg1LjExLDM5My45MiIgc3R5bGU9InN0cm9rZTojMTgxODE4O3N0cm9rZS13aWR0aDoxLjA7Ii8+PC9nPjwhLS1saW5rIEVtcGxveWVlIHRvIFByb2Nlc3MgVHJhbnNhY3Rpb24tLT48ZyBpZD0ibGlua19FbXBsb3llZV9Qcm9jZXNzIFRyYW5zYWN0aW9uIj48cGF0aCBkPSJNMTkzOC42NywyMDcuNjcgQzE5NTguOTMsMjI3LjkzIDE5ODUuNjUsMjU0LjY1IDIwMDQuMTgsMjczLjE4ICIgZmlsbD0ibm9uZSIgaWQ9IkVtcGxveWVlLXRvLVByb2Nlc3MgVHJhbnNhY3Rpb24iIHN0eWxlPSJzdHJva2U6IzE4MTgxODtzdHJva2Utd2lkdGg6MS4wOyIvPjxwb2x5Z29uIGZpbGw9IiMxODE4MTgiIHBvaW50cz0iMjAwNy43NywyNzYuNzcsMjAwNC4yMzQ1LDI2Ny41Nzc2LDIwMDQuMjM0NSwyNzMuMjM0NSwxOTk4LjU3NzYsMjczLjIzNDUsMjAwNy43NywyNzYuNzciIHN0eWxlPSJzdHJva2U6IzE4MTgxODtzdHJva2Utd2lkdGg6MS4wOyIvPjwvZz48IS0tbGluayBCcm93c2UgR29vZHMgdG8gVmlldyBHb29kcyBEZXRhaWxzLS0+PGcgaWQ9ImxpbmtfQnJvd3NlIEdvb2RzX1ZpZXcgR29vZHMgRGV0YWlscyI+PHBhdGggZD0iTTU1NS43OCwzMTAuNjMgQzUzOS42OSwzMTkuOTcgNTE3LjE1LDMzMS45NyA0OTYsMzM5LjUgQzQ4Ni4yNSwzNDIuOTcgMzY2Ljk3LDM2Ny4zNCAyODkuOTUsMzgyLjkyICIgZmlsbD0ibm9uZSIgaWQ9IkJyb3dzZSBHb29kcy10by1WaWV3IEdvb2RzIERldGFpbHMiIHN0eWxlPSJzdHJva2U6IzE4MTgxODtzdHJva2Utd2lkdGg6MS4wOyIvPjxwb2x5Z29uIGZpbGw9IiMxODE4MTgiIHBvaW50cz0iMjg0Ljk0LDM4My45MywyOTQuNTUyMSwzODYuMDc2NSwyODkuODQxOCwzODIuOTQzOSwyOTIuOTc0NCwzNzguMjMzNiwyODQuOTQsMzgzLjkzIiBzdHlsZT0ic3Ryb2tlOiMxODE4MTg7c3Ryb2tlLXdpZHRoOjEuMDsiLz48L2c+PCEtLWxpbmsgUHVyY2hhc2UgR29vZHMgdG8gQ2hlY2tvdXQtLT48ZyBpZD0ibGlua19QdXJjaGFzZSBHb29kc19DaGVja291dCI+PHBhdGggZD0iTTM2NS42NywzMDkuMDQgQzMwOS45NiwzMjQuNTQgMjEwLjIyLDM1Mi4zNSAxMjUsMzc2LjUgQzExNS4yNCwzNzkuMjcgMTA0LjcsMzgyLjI4IDk0LjksMzg1LjA5ICIgZmlsbD0ibm9uZSIgaWQ9IlB1cmNoYXNlIEdvb2RzLXRvLUNoZWNrb3V0IiBzdHlsZT0ic3Ryb2tlOiMxODE4MTg7c3Ryb2tlLXdpZHRoOjEuMDsiLz48cG9seWdvbiBmaWxsPSIjMTgxODE4IiBwb2ludHM9Ijg5Ljg1LDM4Ni41NCw5OS42MDE1LDM4Ny45MjEzLDk0LjY1ODcsMzg1LjE3MDIsOTcuNDA5OCwzODAuMjI3Myw4OS44NSwzODYuNTQiIHN0eWxlPSJzdHJva2U6IzE4MTgxODtzdHJva2Utd2lkdGg6MS4wOyIvPjwvZz48IS0tbGluayBXYXJlaG91c2VFbXBsb3llZSB0byBVcGRhdGUgSW52ZW50b3J5LS0+PGcgaWQ9ImxpbmtfV2FyZWhvdXNlRW1wbG95ZWVfVXBkYXRlIEludmVudG9yeSI+PHBhdGggZD0iTTE5NDcuNzMsODAuNjkgQzE5NzQuNTMsMTA1LjQ1IDIwMDguODYsMTM3LjE1IDIwMzAuNjUsMTU3LjI4ICIgZmlsbD0ibm9uZSIgaWQ9IldhcmVob3VzZUVtcGxveWVlLXRvLVVwZGF0ZSBJbnZlbnRvcnkiIHN0eWxlPSJzdHJva2U6IzE4MTgxODtzdHJva2Utd2lkdGg6MS4wOyIvPjxwb2x5Z29uIGZpbGw9IiMxODE4MTgiIHBvaW50cz0iMjAzNC41NiwxNjAuOSwyMDMwLjY3NDUsMTUxLjg1LDIwMzAuODkxNSwxNTcuNTAyNywyMDI1LjIzODgsMTU3LjcxOTYsMjAzNC41NiwxNjAuOSIgc3R5bGU9InN0cm9rZTojMTgxODE4O3N0cm9rZS13aWR0aDoxLjA7Ii8+PC9nPjwhLS1saW5rIFJldGFpbEVtcGxveWVlIHRvIFVwZGF0ZSBJbnZlbnRvcnktLT48ZyBpZD0ibGlua19SZXRhaWxFbXBsb3llZV9VcGRhdGUgSW52ZW50b3J5Ij48cGF0aCBkPSJNMjA1Mi43Miw4MC42OSBDMjA1Mi41NCwxMDQuNTUgMjA1Mi4zMiwxMzQuODYgMjA1Mi4xNywxNTUuMDQgIiBmaWxsPSJub25lIiBpZD0iUmV0YWlsRW1wbG95ZWUtdG8tVXBkYXRlIEludmVudG9yeSIgc3R5bGU9InN0cm9rZTojMTgxODE4O3N0cm9rZS13aWR0aDoxLjA7Ii8+PHBvbHlnb24gZmlsbD0iIzE4MTgxOCIgcG9pbnRzPSIyMDUyLjEzLDE2MC4yLDIwNTYuMjA3LDE1MS4yMzQ2LDIwNTIuMTcyOSwxNTUuMjAwMiwyMDQ4LjIwNzMsMTUxLjE2NiwyMDUyLjEzLDE2MC4yIiBzdHlsZT0ic3Ryb2tlOiMxODE4MTg7c3Ryb2tlLXdpZHRoOjEuMDsiLz48L2c+PCEtLWxpbmsgQXVkaXQgRW1wbG95ZWUgV29yayB0byBHZW5lcmF0ZSBBdWRpdCBSZXBvcnQtLT48ZyBpZD0ibGlua19BdWRpdCBFbXBsb3llZSBXb3JrX0dlbmVyYXRlIEF1ZGl0IFJlcG9ydCI+PHBhdGggZD0iTTc5Ni40LDMxNC4wOSBDODE2LjEyLDMyMy4zMyA4NDEuODcsMzMzLjk1IDg2NiwzMzkuNSBDMTAyMi4zNiwzNzUuNDYgMTQ5NS4xNywzODkuNjMgMTY5OS4zOCwzOTQuMTggIiBmaWxsPSJub25lIiBpZD0iQXVkaXQgRW1wbG95ZWUgV29yay10by1HZW5lcmF0ZSBBdWRpdCBSZXBvcnQiIHN0eWxlPSJzdHJva2U6IzE4MTgxODtzdHJva2Utd2lkdGg6MS4wOyIvPjxwb2x5Z29uIGZpbGw9IiMxODE4MTgiIHBvaW50cz0iMTcwNC40NSwzOTQuMjksMTY5NS41NDM4LDM5MC4wODU0LDE2OTkuNDUxMywzOTQuMTc1NywxNjk1LjM2MDksMzk4LjA4MzMsMTcwNC40NSwzOTQuMjkiIHN0eWxlPSJzdHJva2U6IzE4MTgxODtzdHJva2Utd2lkdGg6MS4wOyIvPjwvZz48IS0tU1JDPVtWTDUxSmlDbTRCcHg1TFBGb1E1Vmc0RzNBWnMxS2cxZG9yYVFBdWFUaFVyTTRWMXRiWldqSUtvR0I1ZFVjTHRscDBaZjNGQkNNc1NRRzJSd3ZxRkpyZ08zNjl2N1dMMFFSczVNcHk0OUxTLUFUeHZHVDNFNjg5dEdmbmh1d2sxUm00UFcxT3VWRWtrV01WNEZuY19WeWxMd212Q2pjZWk1bFpFY2k2YzRGZGtLZkhaWlRBdl8xcWVFNGpIdm45WjJfTVBCdUR2UWx6WnZXYUJSVHpmYTBOeUtrZ1dOa3Z6OGw3MzBDczVCeWtvYW8wMFMxNEpNS2lsZHZaUzBGWkN2V2thQ1plejV0a1g3V3JNeXFHdnFNMmNtU3NXRGtmSHpKS0JSMmJxZlZIZTViYm9kZjRDYVEySE9vdGp4QTdyYlQzemFjY0pXbFljdVgwQV94bk1IS1ZEQzBwQ2hHTFI2cXB1aVlVbVBFQXpqeVJGLU5mejFhX0lFUGFyek1rSDU4WFF5LURGOF9wZy0wRzAwXS0tPjwvZz48L3N2Zz4=;" vertex="1" parent="1">
            <mxGeometry x="-1654" y="-1169" width="2480.22" height="499" as="geometry" />
          </mxCell>
        </UserObject>
      </root>
    </mxGraphModel>
  </diagram>
  <diagram id="RjEwMnebQ29fWje7ByRg" name="Page-3">
    <mxGraphModel dx="3752" dy="3009" grid="1" gridSize="10" guides="1" tooltips="1" connect="1" arrows="1" fold="1" page="1" pageScale="1" pageWidth="827" pageHeight="1169" math="0" shadow="0">
      <root>
        <mxCell id="0" />
        <mxCell id="1" parent="0" />
        <UserObject label="" plantUmlData="{&quot;data&quot;:&quot;@startuml SupermarketMerchandiseActivity\n\n|Customer|\nstart\n:Customer Browses Goods;\nif (Item Selected?) then (yes)\n  :Customer Views Goods Details;\nelse (no)\n  stop\nendif\n:Customer Adds Goods to Cart;\n:Customer Proceeds to Checkout;\nif (Items in Cart?) then (yes)\n  |Retail Employee|\n  :Retail Employee Scans Items;\n  :Retail Employee Generates Transaction;\n  if (Payment Successful?) then (yes)\n    :Retail Employee Updates Inventory;\n    :Retail Employee Provides Receipt to Customer;\n    :Customer Completes Purchase;\n  else (no)\n    :Customer Cancels Purchase;\n  endif\nelse (no)\n  :Customer Cancels Purchase;\nendif\n\n|Warehouse Employee|\n:Warehouse Employee Receives Goods;\n:Warehouse Employee Audits Goods;\n:Warehouse Employee Issues Goods;\n:Warehouse Employee Transfers Goods;\n:Warehouse Employee Handles Goods;\nif (Audit Employee Work?) then (yes)\n  |Auditor|\n  :Auditor Audits Employee Work;\n  :Auditor Generates Audit Report;\nelse (no)\n  stop\nendif\n\n|Retail Employee|\n:Retail Employee Operates Cash Register;\n:Retail Employee Processes Transaction;\nif (Transaction Successful?) then (yes)\n  :Retail Employee Updates Cash Register;\n  :Retail Employee Records Sale;\n  :Retail Employee Provides Receipt to Customer;\nelse (no)\n  :Customer Cancels Purchase;\nendif\n\nstop\n\n@enduml\n&quot;,&quot;format&quot;:&quot;svg&quot;}" id="orVmRcL6gc7gujXbe9tU-1">
          <mxCell style="shape=image;noLabel=1;verticalAlign=top;aspect=fixed;imageAspect=0;image=data:image/svg+xml,PD94bWwgdmVyc2lvbj0iMS4wIiBlbmNvZGluZz0idXMtYXNjaWkiIHN0YW5kYWxvbmU9Im5vIj8+PHN2ZyB4bWxucz0iaHR0cDovL3d3dy53My5vcmcvMjAwMC9zdmciIHhtbG5zOnhsaW5rPSJodHRwOi8vd3d3LnczLm9yZy8xOTk5L3hsaW5rIiBjb250ZW50U3R5bGVUeXBlPSJ0ZXh0L2NzcyIgaGVpZ2h0PSIxNTIwcHgiIHByZXNlcnZlQXNwZWN0UmF0aW89Im5vbmUiIHN0eWxlPSJ3aWR0aDoxNTAzcHg7aGVpZ2h0OjE1MjBweDtiYWNrZ3JvdW5kOiNGRkZGRkY7IiB2ZXJzaW9uPSIxLjEiIHZpZXdCb3g9IjAgMCAxNTAzIDE1MjAiIHdpZHRoPSIxNTAzcHgiIHpvb21BbmRQYW49Im1hZ25pZnkiPjxkZWZzLz48Zz48cmVjdCBmaWxsPSJub25lIiBoZWlnaHQ9IjE5LjI2NTYiIHN0eWxlPSJzdHJva2U6bm9uZTtzdHJva2Utd2lkdGg6MS4wOyIgd2lkdGg9IjE0NzAiIHg9IjE1IiB5PSIxMSIvPjxlbGxpcHNlIGN4PSIxMjcuNSIgY3k9IjQ1LjI2NTYiIGZpbGw9IiMyMjIyMjIiIHJ4PSIxMCIgcnk9IjEwIiBzdHlsZT0ic3Ryb2tlOiMyMjIyMjI7c3Ryb2tlLXdpZHRoOjEuMDsiLz48cmVjdCBmaWxsPSIjRjFGMUYxIiBoZWlnaHQ9IjMyLjg0MzgiIHJ4PSIxMi41IiByeT0iMTIuNSIgc3R5bGU9InN0cm9rZTojMTgxODE4O3N0cm9rZS13aWR0aDowLjU7IiB3aWR0aD0iMTY5IiB4PSI0MyIgeT0iNzUuMjY1NiIvPjx0ZXh0IGZpbGw9IiMwMDAwMDAiIGZvbnQtZmFtaWx5PSJzYW5zLXNlcmlmIiBmb250LXNpemU9IjEyIiBsZW5ndGhBZGp1c3Q9InNwYWNpbmciIHRleHRMZW5ndGg9IjE0OSIgeD0iNTMiIHk9Ijk2LjYwOTQiPkN1c3RvbWVyIEJyb3dzZXMgR29vZHM8L3RleHQ+PHJlY3QgZmlsbD0iI0YxRjFGMSIgaGVpZ2h0PSIzMi44NDM4IiByeD0iMTIuNSIgcnk9IjEyLjUiIHN0eWxlPSJzdHJva2U6IzE4MTgxODtzdHJva2Utd2lkdGg6MC41OyIgd2lkdGg9IjIwNiIgeD0iMjQuNSIgeT0iMTc2LjEwOTQiLz48dGV4dCBmaWxsPSIjMDAwMDAwIiBmb250LWZhbWlseT0ic2Fucy1zZXJpZiIgZm9udC1zaXplPSIxMiIgbGVuZ3RoQWRqdXN0PSJzcGFjaW5nIiB0ZXh0TGVuZ3RoPSIxODYiIHg9IjM0LjUiIHk9IjE5Ny40NTMxIj5DdXN0b21lciBWaWV3cyBHb29kcyBEZXRhaWxzPC90ZXh0Pjxwb2x5Z29uIGZpbGw9IiNGMUYxRjEiIHBvaW50cz0iODUuNSwxMjguMTA5NCwxNjkuNSwxMjguMTA5NCwxODEuNSwxNDAuMTA5NCwxNjkuNSwxNTIuMTA5NCw4NS41LDE1Mi4xMDk0LDczLjUsMTQwLjEwOTQsODUuNSwxMjguMTA5NCIgc3R5bGU9InN0cm9rZTojMTgxODE4O3N0cm9rZS13aWR0aDowLjU7Ii8+PHRleHQgZmlsbD0iIzAwMDAwMCIgZm9udC1mYW1pbHk9InNhbnMtc2VyaWYiIGZvbnQtc2l6ZT0iMTEiIGxlbmd0aEFkanVzdD0ic3BhY2luZyIgdGV4dExlbmd0aD0iMTgiIHg9IjEzMS41IiB5PSIxNjIuNTA3OCI+eWVzPC90ZXh0Pjx0ZXh0IGZpbGw9IiMwMDAwMDAiIGZvbnQtZmFtaWx5PSJzYW5zLXNlcmlmIiBmb250LXNpemU9IjExIiBsZW5ndGhBZGp1c3Q9InNwYWNpbmciIHRleHRMZW5ndGg9Ijg0IiB4PSI4NS41IiB5PSIxNDQuNjIxMSI+SXRlbSBTZWxlY3RlZD88L3RleHQ+PHRleHQgZmlsbD0iIzAwMDAwMCIgZm9udC1mYW1pbHk9InNhbnMtc2VyaWYiIGZvbnQtc2l6ZT0iMTEiIGxlbmd0aEFkanVzdD0ic3BhY2luZyIgdGV4dExlbmd0aD0iMTIiIHg9IjE4MS41IiB5PSIxMzguNzM0NCI+bm88L3RleHQ+PGVsbGlwc2UgY3g9IjIxNS41IiBjeT0iMTQwLjEwOTQiIGZpbGw9Im5vbmUiIHJ4PSIxMSIgcnk9IjExIiBzdHlsZT0ic3Ryb2tlOiMyMjIyMjI7c3Ryb2tlLXdpZHRoOjEuMDsiLz48ZWxsaXBzZSBjeD0iMjE1LjUiIGN5PSIxNDAuMTA5NCIgZmlsbD0iIzIyMjIyMiIgcng9IjYiIHJ5PSI2IiBzdHlsZT0ic3Ryb2tlOiMxMTExMTE7c3Ryb2tlLXdpZHRoOjEuMDsiLz48cmVjdCBmaWxsPSIjRjFGMUYxIiBoZWlnaHQ9IjMyLjg0MzgiIHJ4PSIxMi41IiByeT0iMTIuNSIgc3R5bGU9InN0cm9rZTojMTgxODE4O3N0cm9rZS13aWR0aDowLjU7IiB3aWR0aD0iMjAxIiB4PSIyNyIgeT0iMjI4Ljk1MzEiLz48dGV4dCBmaWxsPSIjMDAwMDAwIiBmb250LWZhbWlseT0ic2Fucy1zZXJpZiIgZm9udC1zaXplPSIxMiIgbGVuZ3RoQWRqdXN0PSJzcGFjaW5nIiB0ZXh0TGVuZ3RoPSIxODEiIHg9IjM3IiB5PSIyNTAuMjk2OSI+Q3VzdG9tZXIgQWRkcyBHb29kcyB0byBDYXJ0PC90ZXh0PjxyZWN0IGZpbGw9IiNGMUYxRjEiIGhlaWdodD0iMzIuODQzOCIgcng9IjEyLjUiIHJ5PSIxMi41IiBzdHlsZT0ic3Ryb2tlOiMxODE4MTg7c3Ryb2tlLXdpZHRoOjAuNTsiIHdpZHRoPSIyMTMiIHg9IjIxIiB5PSIyODEuNzk2OSIvPjx0ZXh0IGZpbGw9IiMwMDAwMDAiIGZvbnQtZmFtaWx5PSJzYW5zLXNlcmlmIiBmb250LXNpemU9IjEyIiBsZW5ndGhBZGp1c3Q9InNwYWNpbmciIHRleHRMZW5ndGg9IjE5MyIgeD0iMzEiIHk9IjMwMy4xNDA2Ij5DdXN0b21lciBQcm9jZWVkcyB0byBDaGVja291dDwvdGV4dD48cG9seWdvbiBmaWxsPSIjRjFGMUYxIiBwb2ludHM9Ijg1LjUsMzM0LjY0MDYsMTY5LjUsMzM0LjY0MDYsMTgxLjUsMzQ2LjY0MDYsMTY5LjUsMzU4LjY0MDYsODUuNSwzNTguNjQwNiw3My41LDM0Ni42NDA2LDg1LjUsMzM0LjY0MDYiIHN0eWxlPSJzdHJva2U6IzE4MTgxODtzdHJva2Utd2lkdGg6MC41OyIvPjx0ZXh0IGZpbGw9IiMwMDAwMDAiIGZvbnQtZmFtaWx5PSJzYW5zLXNlcmlmIiBmb250LXNpemU9IjExIiBsZW5ndGhBZGp1c3Q9InNwYWNpbmciIHRleHRMZW5ndGg9Ijg0IiB4PSI4NS41IiB5PSIzNTEuMTUyMyI+SXRlbXMgaW4gQ2FydD88L3RleHQ+PHRleHQgZmlsbD0iIzAwMDAwMCIgZm9udC1mYW1pbHk9InNhbnMtc2VyaWYiIGZvbnQtc2l6ZT0iMTEiIGxlbmd0aEFkanVzdD0ic3BhY2luZyIgdGV4dExlbmd0aD0iMTgiIHg9IjU1LjUiIHk9IjM0NS4yNjU2Ij55ZXM8L3RleHQ+PHRleHQgZmlsbD0iIzAwMDAwMCIgZm9udC1mYW1pbHk9InNhbnMtc2VyaWYiIGZvbnQtc2l6ZT0iMTEiIGxlbmd0aEFkanVzdD0ic3BhY2luZyIgdGV4dExlbmd0aD0iMTIiIHg9IjE4MS41IiB5PSIzNDUuMjY1NiI+bm88L3RleHQ+PHBvbHlnb24gZmlsbD0iI0YxRjFGMSIgcG9pbnRzPSIxMjcuNSw2OTYuODU5NCwxMzkuNSw3MDguODU5NCwxMjcuNSw3MjAuODU5NCwxMTUuNSw3MDguODU5NCwxMjcuNSw2OTYuODU5NCIgc3R5bGU9InN0cm9rZTojMTgxODE4O3N0cm9rZS13aWR0aDowLjU7Ii8+PGxpbmUgc3R5bGU9InN0cm9rZTojMDAwMDAwO3N0cm9rZS13aWR0aDoxLjU7IiB4MT0iMTUiIHgyPSIxNSIgeTE9IjExIiB5Mj0iMTUwOC45ODQ0Ii8+PHJlY3QgZmlsbD0iI0YxRjFGMSIgaGVpZ2h0PSIzMi44NDM4IiByeD0iMTIuNSIgcnk9IjEyLjUiIHN0eWxlPSJzdHJva2U6IzE4MTgxODtzdHJva2Utd2lkdGg6MC41OyIgd2lkdGg9IjE5NiIgeD0iNDM1LjUiIHk9IjM3OC42NDA2Ii8+PHRleHQgZmlsbD0iIzAwMDAwMCIgZm9udC1mYW1pbHk9InNhbnMtc2VyaWYiIGZvbnQtc2l6ZT0iMTIiIGxlbmd0aEFkanVzdD0ic3BhY2luZyIgdGV4dExlbmd0aD0iMTc2IiB4PSI0NDUuNSIgeT0iMzk5Ljk4NDQiPlJldGFpbCBFbXBsb3llZSBTY2FucyBJdGVtczwvdGV4dD48cmVjdCBmaWxsPSIjRjFGMUYxIiBoZWlnaHQ9IjMyLjg0MzgiIHJ4PSIxMi41IiByeT0iMTIuNSIgc3R5bGU9InN0cm9rZTojMTgxODE4O3N0cm9rZS13aWR0aDowLjU7IiB3aWR0aD0iMjY1IiB4PSI0MDEiIHk9IjQzMS40ODQ0Ii8+PHRleHQgZmlsbD0iIzAwMDAwMCIgZm9udC1mYW1pbHk9InNhbnMtc2VyaWYiIGZvbnQtc2l6ZT0iMTIiIGxlbmd0aEFkanVzdD0ic3BhY2luZyIgdGV4dExlbmd0aD0iMjQ1IiB4PSI0MTEiIHk9IjQ1Mi44MjgxIj5SZXRhaWwgRW1wbG95ZWUgR2VuZXJhdGVzIFRyYW5zYWN0aW9uPC90ZXh0Pjxwb2x5Z29uIGZpbGw9IiNGMUYxRjEiIHBvaW50cz0iNDc2LjUsNDg0LjMyODEsNTkwLjUsNDg0LjMyODEsNjAyLjUsNDk2LjMyODEsNTkwLjUsNTA4LjMyODEsNDc2LjUsNTA4LjMyODEsNDY0LjUsNDk2LjMyODEsNDc2LjUsNDg0LjMyODEiIHN0eWxlPSJzdHJva2U6IzE4MTgxODtzdHJva2Utd2lkdGg6MC41OyIvPjx0ZXh0IGZpbGw9IiMwMDAwMDAiIGZvbnQtZmFtaWx5PSJzYW5zLXNlcmlmIiBmb250LXNpemU9IjExIiBsZW5ndGhBZGp1c3Q9InNwYWNpbmciIHRleHRMZW5ndGg9IjExNCIgeD0iNDc2LjUiIHk9IjUwMC44Mzk4Ij5QYXltZW50IFN1Y2Nlc3NmdWw/PC90ZXh0Pjx0ZXh0IGZpbGw9IiMwMDAwMDAiIGZvbnQtZmFtaWx5PSJzYW5zLXNlcmlmIiBmb250LXNpemU9IjExIiBsZW5ndGhBZGp1c3Q9InNwYWNpbmciIHRleHRMZW5ndGg9IjE4IiB4PSI0NDYuNSIgeT0iNDk0Ljk1MzEiPnllczwvdGV4dD48dGV4dCBmaWxsPSIjMDAwMDAwIiBmb250LWZhbWlseT0ic2Fucy1zZXJpZiIgZm9udC1zaXplPSIxMSIgbGVuZ3RoQWRqdXN0PSJzcGFjaW5nIiB0ZXh0TGVuZ3RoPSIxMiIgeD0iNjAyLjUiIHk9IjQ5NC45NTMxIj5ubzwvdGV4dD48cmVjdCBmaWxsPSIjRjFGMUYxIiBoZWlnaHQ9IjMyLjg0MzgiIHJ4PSIxMi41IiByeT0iMTIuNSIgc3R5bGU9InN0cm9rZTojMTgxODE4O3N0cm9rZS13aWR0aDowLjU7IiB3aWR0aD0iMjM5IiB4PSIyNzkuNSIgeT0iNTE4LjMyODEiLz48dGV4dCBmaWxsPSIjMDAwMDAwIiBmb250LWZhbWlseT0ic2Fucy1zZXJpZiIgZm9udC1zaXplPSIxMiIgbGVuZ3RoQWRqdXN0PSJzcGFjaW5nIiB0ZXh0TGVuZ3RoPSIyMTkiIHg9IjI4OS41IiB5PSI1MzkuNjcxOSI+UmV0YWlsIEVtcGxveWVlIFVwZGF0ZXMgSW52ZW50b3J5PC90ZXh0PjxyZWN0IGZpbGw9IiNGMUYxRjEiIGhlaWdodD0iMzIuODQzOCIgcng9IjEyLjUiIHJ5PSIxMi41IiBzdHlsZT0ic3Ryb2tlOiMxODE4MTg7c3Ryb2tlLXdpZHRoOjAuNTsiIHdpZHRoPSIzMTAiIHg9IjI0NCIgeT0iNTcxLjE3MTkiLz48dGV4dCBmaWxsPSIjMDAwMDAwIiBmb250LWZhbWlseT0ic2Fucy1zZXJpZiIgZm9udC1zaXplPSIxMiIgbGVuZ3RoQWRqdXN0PSJzcGFjaW5nIiB0ZXh0TGVuZ3RoPSIyOTAiIHg9IjI1NCIgeT0iNTkyLjUxNTYiPlJldGFpbCBFbXBsb3llZSBQcm92aWRlcyBSZWNlaXB0IHRvIEN1c3RvbWVyPC90ZXh0PjxyZWN0IGZpbGw9IiNGMUYxRjEiIGhlaWdodD0iMzIuODQzOCIgcng9IjEyLjUiIHJ5PSIxMi41IiBzdHlsZT0ic3Ryb2tlOiMxODE4MTg7c3Ryb2tlLXdpZHRoOjAuNTsiIHdpZHRoPSIyMDEiIHg9IjI5OC41IiB5PSI2MjQuMDE1NiIvPjx0ZXh0IGZpbGw9IiMwMDAwMDAiIGZvbnQtZmFtaWx5PSJzYW5zLXNlcmlmIiBmb250LXNpemU9IjEyIiBsZW5ndGhBZGp1c3Q9InNwYWNpbmciIHRleHRMZW5ndGg9IjE4MSIgeD0iMzA4LjUiIHk9IjY0NS4zNTk0Ij5DdXN0b21lciBDb21wbGV0ZXMgUHVyY2hhc2U8L3RleHQ+PHJlY3QgZmlsbD0iI0YxRjFGMSIgaGVpZ2h0PSIzMi44NDM4IiByeD0iMTIuNSIgcnk9IjEyLjUiIHN0eWxlPSJzdHJva2U6IzE4MTgxODtzdHJva2Utd2lkdGg6MC41OyIgd2lkdGg9IjE4OCIgeD0iNTc0IiB5PSI1MTguMzI4MSIvPjx0ZXh0IGZpbGw9IiMwMDAwMDAiIGZvbnQtZmFtaWx5PSJzYW5zLXNlcmlmIiBmb250LXNpemU9IjEyIiBsZW5ndGhBZGp1c3Q9InNwYWNpbmciIHRleHRMZW5ndGg9IjE2OCIgeD0iNTg0IiB5PSI1MzkuNjcxOSI+Q3VzdG9tZXIgQ2FuY2VscyBQdXJjaGFzZTwvdGV4dD48cG9seWdvbiBmaWxsPSIjRjFGMUYxIiBwb2ludHM9IjUzMy41LDY2Mi44NTk0LDU0NS41LDY3NC44NTk0LDUzMy41LDY4Ni44NTk0LDUyMS41LDY3NC44NTk0LDUzMy41LDY2Mi44NTk0IiBzdHlsZT0ic3Ryb2tlOiMxODE4MTg7c3Ryb2tlLXdpZHRoOjAuNTsiLz48cmVjdCBmaWxsPSIjRjFGMUYxIiBoZWlnaHQ9IjMyLjg0MzgiIHJ4PSIxMi41IiByeT0iMTIuNSIgc3R5bGU9InN0cm9rZTojMTgxODE4O3N0cm9rZS13aWR0aDowLjU7IiB3aWR0aD0iMTg4IiB4PSI3OTIiIHk9IjM3OC42NDA2Ii8+PHRleHQgZmlsbD0iIzAwMDAwMCIgZm9udC1mYW1pbHk9InNhbnMtc2VyaWYiIGZvbnQtc2l6ZT0iMTIiIGxlbmd0aEFkanVzdD0ic3BhY2luZyIgdGV4dExlbmd0aD0iMTY4IiB4PSI4MDIiIHk9IjM5OS45ODQ0Ij5DdXN0b21lciBDYW5jZWxzIFB1cmNoYXNlPC90ZXh0PjxyZWN0IGZpbGw9IiNGMUYxRjEiIGhlaWdodD0iMzIuODQzOCIgcng9IjEyLjUiIHJ5PSIxMi41IiBzdHlsZT0ic3Ryb2tlOiMxODE4MTg7c3Ryb2tlLXdpZHRoOjAuNTsiIHdpZHRoPSIyNzMiIHg9IjU3My4yNSIgeT0iMTE1OC43NjU2Ii8+PHRleHQgZmlsbD0iIzAwMDAwMCIgZm9udC1mYW1pbHk9InNhbnMtc2VyaWYiIGZvbnQtc2l6ZT0iMTIiIGxlbmd0aEFkanVzdD0ic3BhY2luZyIgdGV4dExlbmd0aD0iMjUzIiB4PSI1ODMuMjUiIHk9IjExODAuMTA5NCI+UmV0YWlsIEVtcGxveWVlIE9wZXJhdGVzIENhc2ggUmVnaXN0ZXI8L3RleHQ+PHJlY3QgZmlsbD0iI0YxRjFGMSIgaGVpZ2h0PSIzMi44NDM4IiByeD0iMTIuNSIgcnk9IjEyLjUiIHN0eWxlPSJzdHJva2U6IzE4MTgxODtzdHJva2Utd2lkdGg6MC41OyIgd2lkdGg9IjI2NSIgeD0iNTc3LjI1IiB5PSIxMjExLjYwOTQiLz48dGV4dCBmaWxsPSIjMDAwMDAwIiBmb250LWZhbWlseT0ic2Fucy1zZXJpZiIgZm9udC1zaXplPSIxMiIgbGVuZ3RoQWRqdXN0PSJzcGFjaW5nIiB0ZXh0TGVuZ3RoPSIyNDUiIHg9IjU4Ny4yNSIgeT0iMTIzMi45NTMxIj5SZXRhaWwgRW1wbG95ZWUgUHJvY2Vzc2VzIFRyYW5zYWN0aW9uPC90ZXh0Pjxwb2x5Z29uIGZpbGw9IiNGMUYxRjEiIHBvaW50cz0iNjQwLjc1LDEyNjQuNDUzMSw3NzguNzUsMTI2NC40NTMxLDc5MC43NSwxMjc2LjQ1MzEsNzc4Ljc1LDEyODguNDUzMSw2NDAuNzUsMTI4OC40NTMxLDYyOC43NSwxMjc2LjQ1MzEsNjQwLjc1LDEyNjQuNDUzMSIgc3R5bGU9InN0cm9rZTojMTgxODE4O3N0cm9rZS13aWR0aDowLjU7Ii8+PHRleHQgZmlsbD0iIzAwMDAwMCIgZm9udC1mYW1pbHk9InNhbnMtc2VyaWYiIGZvbnQtc2l6ZT0iMTEiIGxlbmd0aEFkanVzdD0ic3BhY2luZyIgdGV4dExlbmd0aD0iMTM4IiB4PSI2NDAuNzUiIHk9IjEyODAuOTY0OCI+VHJhbnNhY3Rpb24gU3VjY2Vzc2Z1bD88L3RleHQ+PHRleHQgZmlsbD0iIzAwMDAwMCIgZm9udC1mYW1pbHk9InNhbnMtc2VyaWYiIGZvbnQtc2l6ZT0iMTEiIGxlbmd0aEFkanVzdD0ic3BhY2luZyIgdGV4dExlbmd0aD0iMTgiIHg9IjYxMC43NSIgeT0iMTI3NS4wNzgxIj55ZXM8L3RleHQ+PHRleHQgZmlsbD0iIzAwMDAwMCIgZm9udC1mYW1pbHk9InNhbnMtc2VyaWYiIGZvbnQtc2l6ZT0iMTEiIGxlbmd0aEFkanVzdD0ic3BhY2luZyIgdGV4dExlbmd0aD0iMTIiIHg9Ijc5MC43NSIgeT0iMTI3NS4wNzgxIj5ubzwvdGV4dD48cmVjdCBmaWxsPSIjRjFGMUYxIiBoZWlnaHQ9IjMyLjg0MzgiIHJ4PSIxMi41IiByeT0iMTIuNSIgc3R5bGU9InN0cm9rZTojMTgxODE4O3N0cm9rZS13aWR0aDowLjU7IiB3aWR0aD0iMjY2IiB4PSI0NDIuMjUiIHk9IjEyOTguNDUzMSIvPjx0ZXh0IGZpbGw9IiMwMDAwMDAiIGZvbnQtZmFtaWx5PSJzYW5zLXNlcmlmIiBmb250LXNpemU9IjEyIiBsZW5ndGhBZGp1c3Q9InNwYWNpbmciIHRleHRMZW5ndGg9IjI0NiIgeD0iNDUyLjI1IiB5PSIxMzE5Ljc5NjkiPlJldGFpbCBFbXBsb3llZSBVcGRhdGVzIENhc2ggUmVnaXN0ZXI8L3RleHQ+PHJlY3QgZmlsbD0iI0YxRjFGMSIgaGVpZ2h0PSIzMi44NDM4IiByeD0iMTIuNSIgcnk9IjEyLjUiIHN0eWxlPSJzdHJva2U6IzE4MTgxODtzdHJva2Utd2lkdGg6MC41OyIgd2lkdGg9IjIwNSIgeD0iNDcyLjc1IiB5PSIxMzUxLjI5NjkiLz48dGV4dCBmaWxsPSIjMDAwMDAwIiBmb250LWZhbWlseT0ic2Fucy1zZXJpZiIgZm9udC1zaXplPSIxMiIgbGVuZ3RoQWRqdXN0PSJzcGFjaW5nIiB0ZXh0TGVuZ3RoPSIxODUiIHg9IjQ4Mi43NSIgeT0iMTM3Mi42NDA2Ij5SZXRhaWwgRW1wbG95ZWUgUmVjb3JkcyBTYWxlPC90ZXh0PjxyZWN0IGZpbGw9IiNGMUYxRjEiIGhlaWdodD0iMzIuODQzOCIgcng9IjEyLjUiIHJ5PSIxMi41IiBzdHlsZT0ic3Ryb2tlOiMxODE4MTg7c3Ryb2tlLXdpZHRoOjAuNTsiIHdpZHRoPSIzMTAiIHg9IjQyMC4yNSIgeT0iMTQwNC4xNDA2Ii8+PHRleHQgZmlsbD0iIzAwMDAwMCIgZm9udC1mYW1pbHk9InNhbnMtc2VyaWYiIGZvbnQtc2l6ZT0iMTIiIGxlbmd0aEFkanVzdD0ic3BhY2luZyIgdGV4dExlbmd0aD0iMjkwIiB4PSI0MzAuMjUiIHk9IjE0MjUuNDg0NCI+UmV0YWlsIEVtcGxveWVlIFByb3ZpZGVzIFJlY2VpcHQgdG8gQ3VzdG9tZXI8L3RleHQ+PHJlY3QgZmlsbD0iI0YxRjFGMSIgaGVpZ2h0PSIzMi44NDM4IiByeD0iMTIuNSIgcnk9IjEyLjUiIHN0eWxlPSJzdHJva2U6IzE4MTgxODtzdHJva2Utd2lkdGg6MC41OyIgd2lkdGg9IjE4OCIgeD0iNzUwLjI1IiB5PSIxMjk4LjQ1MzEiLz48dGV4dCBmaWxsPSIjMDAwMDAwIiBmb250LWZhbWlseT0ic2Fucy1zZXJpZiIgZm9udC1zaXplPSIxMiIgbGVuZ3RoQWRqdXN0PSJzcGFjaW5nIiB0ZXh0TGVuZ3RoPSIxNjgiIHg9Ijc2MC4yNSIgeT0iMTMxOS43OTY5Ij5DdXN0b21lciBDYW5jZWxzIFB1cmNoYXNlPC90ZXh0Pjxwb2x5Z29uIGZpbGw9IiNGMUYxRjEiIHBvaW50cz0iNzA5Ljc1LDE0NDIuOTg0NCw3MjEuNzUsMTQ1NC45ODQ0LDcwOS43NSwxNDY2Ljk4NDQsNjk3Ljc1LDE0NTQuOTg0NCw3MDkuNzUsMTQ0Mi45ODQ0IiBzdHlsZT0ic3Ryb2tlOiMxODE4MTg7c3Ryb2tlLXdpZHRoOjAuNTsiLz48ZWxsaXBzZSBjeD0iNzA5Ljc1IiBjeT0iMTQ5Ny45ODQ0IiBmaWxsPSJub25lIiByeD0iMTEiIHJ5PSIxMSIgc3R5bGU9InN0cm9rZTojMjIyMjIyO3N0cm9rZS13aWR0aDoxLjA7Ii8+PGVsbGlwc2UgY3g9IjcwOS43NSIgY3k9IjE0OTcuOTg0NCIgZmlsbD0iIzIyMjIyMiIgcng9IjYiIHJ5PSI2IiBzdHlsZT0ic3Ryb2tlOiMxMTExMTE7c3Ryb2tlLXdpZHRoOjEuMDsiLz48bGluZSBzdHlsZT0ic3Ryb2tlOiMwMDAwMDA7c3Ryb2tlLXdpZHRoOjEuNTsiIHgxPSIyMzgiIHgyPSIyMzgiIHkxPSIxMSIgeTI9IjE1MDguOTg0NCIvPjxyZWN0IGZpbGw9IiNGMUYxRjEiIGhlaWdodD0iMzIuODQzOCIgcng9IjEyLjUiIHJ5PSIxMi41IiBzdHlsZT0ic3Ryb2tlOiMxODE4MTg7c3Ryb2tlLXdpZHRoOjAuNTsiIHdpZHRoPSIyNDMiIHg9Ijk5My41IiB5PSI3NDAuODU5NCIvPjx0ZXh0IGZpbGw9IiMwMDAwMDAiIGZvbnQtZmFtaWx5PSJzYW5zLXNlcmlmIiBmb250LXNpemU9IjEyIiBsZW5ndGhBZGp1c3Q9InNwYWNpbmciIHRleHRMZW5ndGg9IjIyMyIgeD0iMTAwMy41IiB5PSI3NjIuMjAzMSI+V2FyZWhvdXNlIEVtcGxveWVlIFJlY2VpdmVzIEdvb2RzPC90ZXh0PjxyZWN0IGZpbGw9IiNGMUYxRjEiIGhlaWdodD0iMzIuODQzOCIgcng9IjEyLjUiIHJ5PSIxMi41IiBzdHlsZT0ic3Ryb2tlOiMxODE4MTg7c3Ryb2tlLXdpZHRoOjAuNTsiIHdpZHRoPSIyMjkiIHg9IjEwMDAuNSIgeT0iNzkzLjcwMzEiLz48dGV4dCBmaWxsPSIjMDAwMDAwIiBmb250LWZhbWlseT0ic2Fucy1zZXJpZiIgZm9udC1zaXplPSIxMiIgbGVuZ3RoQWRqdXN0PSJzcGFjaW5nIiB0ZXh0TGVuZ3RoPSIyMDkiIHg9IjEwMTAuNSIgeT0iODE1LjA0NjkiPldhcmVob3VzZSBFbXBsb3llZSBBdWRpdHMgR29vZHM8L3RleHQ+PHJlY3QgZmlsbD0iI0YxRjFGMSIgaGVpZ2h0PSIzMi44NDM4IiByeD0iMTIuNSIgcnk9IjEyLjUiIHN0eWxlPSJzdHJva2U6IzE4MTgxODtzdHJva2Utd2lkdGg6MC41OyIgd2lkdGg9IjIzMCIgeD0iMTAwMCIgeT0iODQ2LjU0NjkiLz48dGV4dCBmaWxsPSIjMDAwMDAwIiBmb250LWZhbWlseT0ic2Fucy1zZXJpZiIgZm9udC1zaXplPSIxMiIgbGVuZ3RoQWRqdXN0PSJzcGFjaW5nIiB0ZXh0TGVuZ3RoPSIyMTAiIHg9IjEwMTAiIHk9Ijg2Ny44OTA2Ij5XYXJlaG91c2UgRW1wbG95ZWUgSXNzdWVzIEdvb2RzPC90ZXh0PjxyZWN0IGZpbGw9IiNGMUYxRjEiIGhlaWdodD0iMzIuODQzOCIgcng9IjEyLjUiIHJ5PSIxMi41IiBzdHlsZT0ic3Ryb2tlOiMxODE4MTg7c3Ryb2tlLXdpZHRoOjAuNTsiIHdpZHRoPSIyNTAiIHg9Ijk5MCIgeT0iODk5LjM5MDYiLz48dGV4dCBmaWxsPSIjMDAwMDAwIiBmb250LWZhbWlseT0ic2Fucy1zZXJpZiIgZm9udC1zaXplPSIxMiIgbGVuZ3RoQWRqdXN0PSJzcGFjaW5nIiB0ZXh0TGVuZ3RoPSIyMzAiIHg9IjEwMDAiIHk9IjkyMC43MzQ0Ij5XYXJlaG91c2UgRW1wbG95ZWUgVHJhbnNmZXJzIEdvb2RzPC90ZXh0PjxyZWN0IGZpbGw9IiNGMUYxRjEiIGhlaWdodD0iMzIuODQzOCIgcng9IjEyLjUiIHJ5PSIxMi41IiBzdHlsZT0ic3Ryb2tlOiMxODE4MTg7c3Ryb2tlLXdpZHRoOjAuNTsiIHdpZHRoPSIyMzciIHg9Ijk5Ni41IiB5PSI5NTIuMjM0NCIvPjx0ZXh0IGZpbGw9IiMwMDAwMDAiIGZvbnQtZmFtaWx5PSJzYW5zLXNlcmlmIiBmb250LXNpemU9IjEyIiBsZW5ndGhBZGp1c3Q9InNwYWNpbmciIHRleHRMZW5ndGg9IjIxNyIgeD0iMTAwNi41IiB5PSI5NzMuNTc4MSI+V2FyZWhvdXNlIEVtcGxveWVlIEhhbmRsZXMgR29vZHM8L3RleHQ+PHBvbHlnb24gZmlsbD0iI0YxRjFGMSIgcG9pbnRzPSIxMDU1LDEwMDUuMDc4MSwxMTc1LDEwMDUuMDc4MSwxMTg3LDEwMTcuMDc4MSwxMTc1LDEwMjkuMDc4MSwxMDU1LDEwMjkuMDc4MSwxMDQzLDEwMTcuMDc4MSwxMDU1LDEwMDUuMDc4MSIgc3R5bGU9InN0cm9rZTojMTgxODE4O3N0cm9rZS13aWR0aDowLjU7Ii8+PHRleHQgZmlsbD0iIzAwMDAwMCIgZm9udC1mYW1pbHk9InNhbnMtc2VyaWYiIGZvbnQtc2l6ZT0iMTEiIGxlbmd0aEFkanVzdD0ic3BhY2luZyIgdGV4dExlbmd0aD0iMTgiIHg9IjExMTkiIHk9IjEwMzkuNDc2NiI+eWVzPC90ZXh0Pjx0ZXh0IGZpbGw9IiMwMDAwMDAiIGZvbnQtZmFtaWx5PSJzYW5zLXNlcmlmIiBmb250LXNpemU9IjExIiBsZW5ndGhBZGp1c3Q9InNwYWNpbmciIHRleHRMZW5ndGg9IjEyMCIgeD0iMTA1NSIgeT0iMTAyMS41ODk4Ij5BdWRpdCBFbXBsb3llZSBXb3JrPzwvdGV4dD48dGV4dCBmaWxsPSIjMDAwMDAwIiBmb250LWZhbWlseT0ic2Fucy1zZXJpZiIgZm9udC1zaXplPSIxMSIgbGVuZ3RoQWRqdXN0PSJzcGFjaW5nIiB0ZXh0TGVuZ3RoPSIxMiIgeD0iMTE4NyIgeT0iMTAxNS43MDMxIj5ubzwvdGV4dD48bGluZSBzdHlsZT0ic3Ryb2tlOiMwMDAwMDA7c3Ryb2tlLXdpZHRoOjEuNTsiIHgxPSI5ODQiIHgyPSI5ODQiIHkxPSIxMSIgeTI9IjE1MDguOTg0NCIvPjxyZWN0IGZpbGw9IiNGMUYxRjEiIGhlaWdodD0iMzIuODQzOCIgcng9IjEyLjUiIHJ5PSIxMi41IiBzdHlsZT0ic3Ryb2tlOiMxODE4MTg7c3Ryb2tlLXdpZHRoOjAuNTsiIHdpZHRoPSIyMDUiIHg9IjEyNTgiIHk9IjEwNTMuMDc4MSIvPjx0ZXh0IGZpbGw9IiMwMDAwMDAiIGZvbnQtZmFtaWx5PSJzYW5zLXNlcmlmIiBmb250LXNpemU9IjEyIiBsZW5ndGhBZGp1c3Q9InNwYWNpbmciIHRleHRMZW5ndGg9IjE4NSIgeD0iMTI2OCIgeT0iMTA3NC40MjE5Ij5BdWRpdG9yIEF1ZGl0cyBFbXBsb3llZSBXb3JrPC90ZXh0PjxyZWN0IGZpbGw9IiNGMUYxRjEiIGhlaWdodD0iMzIuODQzOCIgcng9IjEyLjUiIHJ5PSIxMi41IiBzdHlsZT0ic3Ryb2tlOiMxODE4MTg7c3Ryb2tlLXdpZHRoOjAuNTsiIHdpZHRoPSIyMjEiIHg9IjEyNTAiIHk9IjExMDUuOTIxOSIvPjx0ZXh0IGZpbGw9IiMwMDAwMDAiIGZvbnQtZmFtaWx5PSJzYW5zLXNlcmlmIiBmb250LXNpemU9IjEyIiBsZW5ndGhBZGp1c3Q9InNwYWNpbmciIHRleHRMZW5ndGg9IjIwMSIgeD0iMTI2MCIgeT0iMTEyNy4yNjU2Ij5BdWRpdG9yIEdlbmVyYXRlcyBBdWRpdCBSZXBvcnQ8L3RleHQ+PGVsbGlwc2UgY3g9IjE0NjYuNSIgY3k9IjEwMTcuMDc4MSIgZmlsbD0ibm9uZSIgcng9IjExIiByeT0iMTEiIHN0eWxlPSJzdHJva2U6IzIyMjIyMjtzdHJva2Utd2lkdGg6MS4wOyIvPjxlbGxpcHNlIGN4PSIxNDY2LjUiIGN5PSIxMDE3LjA3ODEiIGZpbGw9IiMyMjIyMjIiIHJ4PSI2IiByeT0iNiIgc3R5bGU9InN0cm9rZTojMTExMTExO3N0cm9rZS13aWR0aDoxLjA7Ii8+PGxpbmUgc3R5bGU9InN0cm9rZTojMDAwMDAwO3N0cm9rZS13aWR0aDoxLjU7IiB4MT0iMTI0NCIgeDI9IjEyNDQiIHkxPSIxMSIgeTI9IjE1MDguOTg0NCIvPjxsaW5lIHN0eWxlPSJzdHJva2U6IzAwMDAwMDtzdHJva2Utd2lkdGg6MS41OyIgeDE9IjE0ODEuNSIgeDI9IjE0ODEuNSIgeTE9IjExIiB5Mj0iMTUwOC45ODQ0Ii8+PGxpbmUgc3R5bGU9InN0cm9rZTojMTgxODE4O3N0cm9rZS13aWR0aDoxLjA7IiB4MT0iMTI3LjUiIHgyPSIxMjcuNSIgeTE9IjU1LjI2NTYiIHkyPSI3NS4yNjU2Ii8+PHBvbHlnb24gZmlsbD0iIzE4MTgxOCIgcG9pbnRzPSIxMjMuNSw2NS4yNjU2LDEyNy41LDc1LjI2NTYsMTMxLjUsNjUuMjY1NiwxMjcuNSw2OS4yNjU2IiBzdHlsZT0ic3Ryb2tlOiMxODE4MTg7c3Ryb2tlLXdpZHRoOjEuMDsiLz48bGluZSBzdHlsZT0ic3Ryb2tlOiMxODE4MTg7c3Ryb2tlLXdpZHRoOjEuMDsiIHgxPSIxMjcuNSIgeDI9IjEyNy41IiB5MT0iMTUyLjEwOTQiIHkyPSIxNzYuMTA5NCIvPjxwb2x5Z29uIGZpbGw9IiMxODE4MTgiIHBvaW50cz0iMTIzLjUsMTY2LjEwOTQsMTI3LjUsMTc2LjEwOTQsMTMxLjUsMTY2LjEwOTQsMTI3LjUsMTcwLjEwOTQiIHN0eWxlPSJzdHJva2U6IzE4MTgxODtzdHJva2Utd2lkdGg6MS4wOyIvPjxsaW5lIHN0eWxlPSJzdHJva2U6IzE4MTgxODtzdHJva2Utd2lkdGg6MS4wOyIgeDE9IjE4MS41IiB4Mj0iMjA0LjUiIHkxPSIxNDAuMTA5NCIgeTI9IjE0MC4xMDk0Ii8+PHBvbHlnb24gZmlsbD0iIzE4MTgxOCIgcG9pbnRzPSIxOTQuNSwxMzYuMTA5NCwyMDQuNSwxNDAuMTA5NCwxOTQuNSwxNDQuMTA5NCwxOTguNSwxNDAuMTA5NCIgc3R5bGU9InN0cm9rZTojMTgxODE4O3N0cm9rZS13aWR0aDoxLjA7Ii8+PGxpbmUgc3R5bGU9InN0cm9rZTojMTgxODE4O3N0cm9rZS13aWR0aDoxLjA7IiB4MT0iMTI3LjUiIHgyPSIxMjcuNSIgeTE9IjIwOC45NTMxIiB5Mj0iMjI4Ljk1MzEiLz48cG9seWdvbiBmaWxsPSIjMTgxODE4IiBwb2ludHM9IjEyMy41LDIxOC45NTMxLDEyNy41LDIyOC45NTMxLDEzMS41LDIxOC45NTMxLDEyNy41LDIyMi45NTMxIiBzdHlsZT0ic3Ryb2tlOiMxODE4MTg7c3Ryb2tlLXdpZHRoOjEuMDsiLz48bGluZSBzdHlsZT0ic3Ryb2tlOiMxODE4MTg7c3Ryb2tlLXdpZHRoOjEuMDsiIHgxPSIxMjcuNSIgeDI9IjEyNy41IiB5MT0iMTA4LjEwOTQiIHkyPSIxMjguMTA5NCIvPjxwb2x5Z29uIGZpbGw9IiMxODE4MTgiIHBvaW50cz0iMTIzLjUsMTE4LjEwOTQsMTI3LjUsMTI4LjEwOTQsMTMxLjUsMTE4LjEwOTQsMTI3LjUsMTIyLjEwOTQiIHN0eWxlPSJzdHJva2U6IzE4MTgxODtzdHJva2Utd2lkdGg6MS4wOyIvPjxsaW5lIHN0eWxlPSJzdHJva2U6IzE4MTgxODtzdHJva2Utd2lkdGg6MS4wOyIgeDE9IjEyNy41IiB4Mj0iMTI3LjUiIHkxPSIyNjEuNzk2OSIgeTI9IjI4MS43OTY5Ii8+PHBvbHlnb24gZmlsbD0iIzE4MTgxOCIgcG9pbnRzPSIxMjMuNSwyNzEuNzk2OSwxMjcuNSwyODEuNzk2OSwxMzEuNSwyNzEuNzk2OSwxMjcuNSwyNzUuNzk2OSIgc3R5bGU9InN0cm9rZTojMTgxODE4O3N0cm9rZS13aWR0aDoxLjA7Ii8+PGxpbmUgc3R5bGU9InN0cm9rZTojMTgxODE4O3N0cm9rZS13aWR0aDoxLjA7IiB4MT0iMTI3LjUiIHgyPSIxMjcuNSIgeTE9IjMxNC42NDA2IiB5Mj0iMzM0LjY0MDYiLz48cG9seWdvbiBmaWxsPSIjMTgxODE4IiBwb2ludHM9IjEyMy41LDMyNC42NDA2LDEyNy41LDMzNC42NDA2LDEzMS41LDMyNC42NDA2LDEyNy41LDMyOC42NDA2IiBzdHlsZT0ic3Ryb2tlOiMxODE4MTg7c3Ryb2tlLXdpZHRoOjEuMDsiLz48bGluZSBzdHlsZT0ic3Ryb2tlOiMxODE4MTg7c3Ryb2tlLXdpZHRoOjEuMDsiIHgxPSI1MzMuNSIgeDI9IjUzMy41IiB5MT0iNDExLjQ4NDQiIHkyPSI0MzEuNDg0NCIvPjxwb2x5Z29uIGZpbGw9IiMxODE4MTgiIHBvaW50cz0iNTI5LjUsNDIxLjQ4NDQsNTMzLjUsNDMxLjQ4NDQsNTM3LjUsNDIxLjQ4NDQsNTMzLjUsNDI1LjQ4NDQiIHN0eWxlPSJzdHJva2U6IzE4MTgxODtzdHJva2Utd2lkdGg6MS4wOyIvPjxsaW5lIHN0eWxlPSJzdHJva2U6IzE4MTgxODtzdHJva2Utd2lkdGg6MS4wOyIgeDE9IjM5OSIgeDI9IjM5OSIgeTE9IjU1MS4xNzE5IiB5Mj0iNTcxLjE3MTkiLz48cG9seWdvbiBmaWxsPSIjMTgxODE4IiBwb2ludHM9IjM5NSw1NjEuMTcxOSwzOTksNTcxLjE3MTksNDAzLDU2MS4xNzE5LDM5OSw1NjUuMTcxOSIgc3R5bGU9InN0cm9rZTojMTgxODE4O3N0cm9rZS13aWR0aDoxLjA7Ii8+PGxpbmUgc3R5bGU9InN0cm9rZTojMTgxODE4O3N0cm9rZS13aWR0aDoxLjA7IiB4MT0iMzk5IiB4Mj0iMzk5IiB5MT0iNjA0LjAxNTYiIHkyPSI2MjQuMDE1NiIvPjxwb2x5Z29uIGZpbGw9IiMxODE4MTgiIHBvaW50cz0iMzk1LDYxNC4wMTU2LDM5OSw2MjQuMDE1Niw0MDMsNjE0LjAxNTYsMzk5LDYxOC4wMTU2IiBzdHlsZT0ic3Ryb2tlOiMxODE4MTg7c3Ryb2tlLXdpZHRoOjEuMDsiLz48bGluZSBzdHlsZT0ic3Ryb2tlOiMxODE4MTg7c3Ryb2tlLXdpZHRoOjEuMDsiIHgxPSI0NjQuNSIgeDI9IjM5OSIgeTE9IjQ5Ni4zMjgxIiB5Mj0iNDk2LjMyODEiLz48bGluZSBzdHlsZT0ic3Ryb2tlOiMxODE4MTg7c3Ryb2tlLXdpZHRoOjEuMDsiIHgxPSIzOTkiIHgyPSIzOTkiIHkxPSI0OTYuMzI4MSIgeTI9IjUxOC4zMjgxIi8+PHBvbHlnb24gZmlsbD0iIzE4MTgxOCIgcG9pbnRzPSIzOTUsNTA4LjMyODEsMzk5LDUxOC4zMjgxLDQwMyw1MDguMzI4MSwzOTksNTEyLjMyODEiIHN0eWxlPSJzdHJva2U6IzE4MTgxODtzdHJva2Utd2lkdGg6MS4wOyIvPjxsaW5lIHN0eWxlPSJzdHJva2U6IzE4MTgxODtzdHJva2Utd2lkdGg6MS4wOyIgeDE9IjYwMi41IiB4Mj0iNjY4IiB5MT0iNDk2LjMyODEiIHkyPSI0OTYuMzI4MSIvPjxsaW5lIHN0eWxlPSJzdHJva2U6IzE4MTgxODtzdHJva2Utd2lkdGg6MS4wOyIgeDE9IjY2OCIgeDI9IjY2OCIgeTE9IjQ5Ni4zMjgxIiB5Mj0iNTE4LjMyODEiLz48cG9seWdvbiBmaWxsPSIjMTgxODE4IiBwb2ludHM9IjY2NCw1MDguMzI4MSw2NjgsNTE4LjMyODEsNjcyLDUwOC4zMjgxLDY2OCw1MTIuMzI4MSIgc3R5bGU9InN0cm9rZTojMTgxODE4O3N0cm9rZS13aWR0aDoxLjA7Ii8+PGxpbmUgc3R5bGU9InN0cm9rZTojMTgxODE4O3N0cm9rZS13aWR0aDoxLjA7IiB4MT0iMzk5IiB4Mj0iMzk5IiB5MT0iNjU2Ljg1OTQiIHkyPSI2NzQuODU5NCIvPjxsaW5lIHN0eWxlPSJzdHJva2U6IzE4MTgxODtzdHJva2Utd2lkdGg6MS4wOyIgeDE9IjM5OSIgeDI9IjUyMS41IiB5MT0iNjc0Ljg1OTQiIHkyPSI2NzQuODU5NCIvPjxwb2x5Z29uIGZpbGw9IiMxODE4MTgiIHBvaW50cz0iNTExLjUsNjcwLjg1OTQsNTIxLjUsNjc0Ljg1OTQsNTExLjUsNjc4Ljg1OTQsNTE1LjUsNjc0Ljg1OTQiIHN0eWxlPSJzdHJva2U6IzE4MTgxODtzdHJva2Utd2lkdGg6MS4wOyIvPjxsaW5lIHN0eWxlPSJzdHJva2U6IzE4MTgxODtzdHJva2Utd2lkdGg6MS4wOyIgeDE9IjY2OCIgeDI9IjY2OCIgeTE9IjU1MS4xNzE5IiB5Mj0iNjc0Ljg1OTQiLz48bGluZSBzdHlsZT0ic3Ryb2tlOiMxODE4MTg7c3Ryb2tlLXdpZHRoOjEuMDsiIHgxPSI2NjgiIHgyPSI1NDUuNSIgeTE9IjY3NC44NTk0IiB5Mj0iNjc0Ljg1OTQiLz48cG9seWdvbiBmaWxsPSIjMTgxODE4IiBwb2ludHM9IjU1NS41LDY3MC44NTk0LDU0NS41LDY3NC44NTk0LDU1NS41LDY3OC44NTk0LDU1MS41LDY3NC44NTk0IiBzdHlsZT0ic3Ryb2tlOiMxODE4MTg7c3Ryb2tlLXdpZHRoOjEuMDsiLz48bGluZSBzdHlsZT0ic3Ryb2tlOiMxODE4MTg7c3Ryb2tlLXdpZHRoOjEuMDsiIHgxPSI1MzMuNSIgeDI9IjUzMy41IiB5MT0iNDY0LjMyODEiIHkyPSI0ODQuMzI4MSIvPjxwb2x5Z29uIGZpbGw9IiMxODE4MTgiIHBvaW50cz0iNTI5LjUsNDc0LjMyODEsNTMzLjUsNDg0LjMyODEsNTM3LjUsNDc0LjMyODEsNTMzLjUsNDc4LjMyODEiIHN0eWxlPSJzdHJva2U6IzE4MTgxODtzdHJva2Utd2lkdGg6MS4wOyIvPjxsaW5lIHN0eWxlPSJzdHJva2U6IzE4MTgxODtzdHJva2Utd2lkdGg6MS4wOyIgeDE9IjcwOS43NSIgeDI9IjcwOS43NSIgeTE9IjExOTEuNjA5NCIgeTI9IjEyMTEuNjA5NCIvPjxwb2x5Z29uIGZpbGw9IiMxODE4MTgiIHBvaW50cz0iNzA1Ljc1LDEyMDEuNjA5NCw3MDkuNzUsMTIxMS42MDk0LDcxMy43NSwxMjAxLjYwOTQsNzA5Ljc1LDEyMDUuNjA5NCIgc3R5bGU9InN0cm9rZTojMTgxODE4O3N0cm9rZS13aWR0aDoxLjA7Ii8+PGxpbmUgc3R5bGU9InN0cm9rZTojMTgxODE4O3N0cm9rZS13aWR0aDoxLjA7IiB4MT0iNTc1LjI1IiB4Mj0iNTc1LjI1IiB5MT0iMTMzMS4yOTY5IiB5Mj0iMTM1MS4yOTY5Ii8+PHBvbHlnb24gZmlsbD0iIzE4MTgxOCIgcG9pbnRzPSI1NzEuMjUsMTM0MS4yOTY5LDU3NS4yNSwxMzUxLjI5NjksNTc5LjI1LDEzNDEuMjk2OSw1NzUuMjUsMTM0NS4yOTY5IiBzdHlsZT0ic3Ryb2tlOiMxODE4MTg7c3Ryb2tlLXdpZHRoOjEuMDsiLz48bGluZSBzdHlsZT0ic3Ryb2tlOiMxODE4MTg7c3Ryb2tlLXdpZHRoOjEuMDsiIHgxPSI1NzUuMjUiIHgyPSI1NzUuMjUiIHkxPSIxMzg0LjE0MDYiIHkyPSIxNDA0LjE0MDYiLz48cG9seWdvbiBmaWxsPSIjMTgxODE4IiBwb2ludHM9IjU3MS4yNSwxMzk0LjE0MDYsNTc1LjI1LDE0MDQuMTQwNiw1NzkuMjUsMTM5NC4xNDA2LDU3NS4yNSwxMzk4LjE0MDYiIHN0eWxlPSJzdHJva2U6IzE4MTgxODtzdHJva2Utd2lkdGg6MS4wOyIvPjxsaW5lIHN0eWxlPSJzdHJva2U6IzE4MTgxODtzdHJva2Utd2lkdGg6MS4wOyIgeDE9IjYyOC43NSIgeDI9IjU3NS4yNSIgeTE9IjEyNzYuNDUzMSIgeTI9IjEyNzYuNDUzMSIvPjxsaW5lIHN0eWxlPSJzdHJva2U6IzE4MTgxODtzdHJva2Utd2lkdGg6MS4wOyIgeDE9IjU3NS4yNSIgeDI9IjU3NS4yNSIgeTE9IjEyNzYuNDUzMSIgeTI9IjEyOTguNDUzMSIvPjxwb2x5Z29uIGZpbGw9IiMxODE4MTgiIHBvaW50cz0iNTcxLjI1LDEyODguNDUzMSw1NzUuMjUsMTI5OC40NTMxLDU3OS4yNSwxMjg4LjQ1MzEsNTc1LjI1LDEyOTIuNDUzMSIgc3R5bGU9InN0cm9rZTojMTgxODE4O3N0cm9rZS13aWR0aDoxLjA7Ii8+PGxpbmUgc3R5bGU9InN0cm9rZTojMTgxODE4O3N0cm9rZS13aWR0aDoxLjA7IiB4MT0iNzkwLjc1IiB4Mj0iODQ0LjI1IiB5MT0iMTI3Ni40NTMxIiB5Mj0iMTI3Ni40NTMxIi8+PGxpbmUgc3R5bGU9InN0cm9rZTojMTgxODE4O3N0cm9rZS13aWR0aDoxLjA7IiB4MT0iODQ0LjI1IiB4Mj0iODQ0LjI1IiB5MT0iMTI3Ni40NTMxIiB5Mj0iMTI5OC40NTMxIi8+PHBvbHlnb24gZmlsbD0iIzE4MTgxOCIgcG9pbnRzPSI4NDAuMjUsMTI4OC40NTMxLDg0NC4yNSwxMjk4LjQ1MzEsODQ4LjI1LDEyODguNDUzMSw4NDQuMjUsMTI5Mi40NTMxIiBzdHlsZT0ic3Ryb2tlOiMxODE4MTg7c3Ryb2tlLXdpZHRoOjEuMDsiLz48bGluZSBzdHlsZT0ic3Ryb2tlOiMxODE4MTg7c3Ryb2tlLXdpZHRoOjEuMDsiIHgxPSI1NzUuMjUiIHgyPSI1NzUuMjUiIHkxPSIxNDM2Ljk4NDQiIHkyPSIxNDU0Ljk4NDQiLz48bGluZSBzdHlsZT0ic3Ryb2tlOiMxODE4MTg7c3Ryb2tlLXdpZHRoOjEuMDsiIHgxPSI1NzUuMjUiIHgyPSI2OTcuNzUiIHkxPSIxNDU0Ljk4NDQiIHkyPSIxNDU0Ljk4NDQiLz48cG9seWdvbiBmaWxsPSIjMTgxODE4IiBwb2ludHM9IjY4Ny43NSwxNDUwLjk4NDQsNjk3Ljc1LDE0NTQuOTg0NCw2ODcuNzUsMTQ1OC45ODQ0LDY5MS43NSwxNDU0Ljk4NDQiIHN0eWxlPSJzdHJva2U6IzE4MTgxODtzdHJva2Utd2lkdGg6MS4wOyIvPjxsaW5lIHN0eWxlPSJzdHJva2U6IzE4MTgxODtzdHJva2Utd2lkdGg6MS4wOyIgeDE9Ijg0NC4yNSIgeDI9Ijg0NC4yNSIgeTE9IjEzMzEuMjk2OSIgeTI9IjE0NTQuOTg0NCIvPjxsaW5lIHN0eWxlPSJzdHJva2U6IzE4MTgxODtzdHJva2Utd2lkdGg6MS4wOyIgeDE9Ijg0NC4yNSIgeDI9IjcyMS43NSIgeTE9IjE0NTQuOTg0NCIgeTI9IjE0NTQuOTg0NCIvPjxwb2x5Z29uIGZpbGw9IiMxODE4MTgiIHBvaW50cz0iNzMxLjc1LDE0NTAuOTg0NCw3MjEuNzUsMTQ1NC45ODQ0LDczMS43NSwxNDU4Ljk4NDQsNzI3Ljc1LDE0NTQuOTg0NCIgc3R5bGU9InN0cm9rZTojMTgxODE4O3N0cm9rZS13aWR0aDoxLjA7Ii8+PGxpbmUgc3R5bGU9InN0cm9rZTojMTgxODE4O3N0cm9rZS13aWR0aDoxLjA7IiB4MT0iNzA5Ljc1IiB4Mj0iNzA5Ljc1IiB5MT0iMTI0NC40NTMxIiB5Mj0iMTI2NC40NTMxIi8+PHBvbHlnb24gZmlsbD0iIzE4MTgxOCIgcG9pbnRzPSI3MDUuNzUsMTI1NC40NTMxLDcwOS43NSwxMjY0LjQ1MzEsNzEzLjc1LDEyNTQuNDUzMSw3MDkuNzUsMTI1OC40NTMxIiBzdHlsZT0ic3Ryb2tlOiMxODE4MTg7c3Ryb2tlLXdpZHRoOjEuMDsiLz48bGluZSBzdHlsZT0ic3Ryb2tlOiMxODE4MTg7c3Ryb2tlLXdpZHRoOjEuMDsiIHgxPSI3MDkuNzUiIHgyPSI3MDkuNzUiIHkxPSIxNDY2Ljk4NDQiIHkyPSIxNDg2Ljk4NDQiLz48cG9seWdvbiBmaWxsPSIjMTgxODE4IiBwb2ludHM9IjcwNS43NSwxNDc2Ljk4NDQsNzA5Ljc1LDE0ODYuOTg0NCw3MTMuNzUsMTQ3Ni45ODQ0LDcwOS43NSwxNDgwLjk4NDQiIHN0eWxlPSJzdHJva2U6IzE4MTgxODtzdHJva2Utd2lkdGg6MS4wOyIvPjxsaW5lIHN0eWxlPSJzdHJva2U6IzE4MTgxODtzdHJva2Utd2lkdGg6MS4wOyIgeDE9IjExMTUiIHgyPSIxMTE1IiB5MT0iNzczLjcwMzEiIHkyPSI3OTMuNzAzMSIvPjxwb2x5Z29uIGZpbGw9IiMxODE4MTgiIHBvaW50cz0iMTExMSw3ODMuNzAzMSwxMTE1LDc5My43MDMxLDExMTksNzgzLjcwMzEsMTExNSw3ODcuNzAzMSIgc3R5bGU9InN0cm9rZTojMTgxODE4O3N0cm9rZS13aWR0aDoxLjA7Ii8+PGxpbmUgc3R5bGU9InN0cm9rZTojMTgxODE4O3N0cm9rZS13aWR0aDoxLjA7IiB4MT0iMTExNSIgeDI9IjExMTUiIHkxPSI4MjYuNTQ2OSIgeTI9Ijg0Ni41NDY5Ii8+PHBvbHlnb24gZmlsbD0iIzE4MTgxOCIgcG9pbnRzPSIxMTExLDgzNi41NDY5LDExMTUsODQ2LjU0NjksMTExOSw4MzYuNTQ2OSwxMTE1LDg0MC41NDY5IiBzdHlsZT0ic3Ryb2tlOiMxODE4MTg7c3Ryb2tlLXdpZHRoOjEuMDsiLz48bGluZSBzdHlsZT0ic3Ryb2tlOiMxODE4MTg7c3Ryb2tlLXdpZHRoOjEuMDsiIHgxPSIxMTE1IiB4Mj0iMTExNSIgeTE9Ijg3OS4zOTA2IiB5Mj0iODk5LjM5MDYiLz48cG9seWdvbiBmaWxsPSIjMTgxODE4IiBwb2ludHM9IjExMTEsODg5LjM5MDYsMTExNSw4OTkuMzkwNiwxMTE5LDg4OS4zOTA2LDExMTUsODkzLjM5MDYiIHN0eWxlPSJzdHJva2U6IzE4MTgxODtzdHJva2Utd2lkdGg6MS4wOyIvPjxsaW5lIHN0eWxlPSJzdHJva2U6IzE4MTgxODtzdHJva2Utd2lkdGg6MS4wOyIgeDE9IjExMTUiIHgyPSIxMTE1IiB5MT0iOTMyLjIzNDQiIHkyPSI5NTIuMjM0NCIvPjxwb2x5Z29uIGZpbGw9IiMxODE4MTgiIHBvaW50cz0iMTExMSw5NDIuMjM0NCwxMTE1LDk1Mi4yMzQ0LDExMTksOTQyLjIzNDQsMTExNSw5NDYuMjM0NCIgc3R5bGU9InN0cm9rZTojMTgxODE4O3N0cm9rZS13aWR0aDoxLjA7Ii8+PGxpbmUgc3R5bGU9InN0cm9rZTojMTgxODE4O3N0cm9rZS13aWR0aDoxLjA7IiB4MT0iMTExNSIgeDI9IjExMTUiIHkxPSI5ODUuMDc4MSIgeTI9IjEwMDUuMDc4MSIvPjxwb2x5Z29uIGZpbGw9IiMxODE4MTgiIHBvaW50cz0iMTExMSw5OTUuMDc4MSwxMTE1LDEwMDUuMDc4MSwxMTE5LDk5NS4wNzgxLDExMTUsOTk5LjA3ODEiIHN0eWxlPSJzdHJva2U6IzE4MTgxODtzdHJva2Utd2lkdGg6MS4wOyIvPjxsaW5lIHN0eWxlPSJzdHJva2U6IzE4MTgxODtzdHJva2Utd2lkdGg6MS4wOyIgeDE9IjEzNjAuNSIgeDI9IjEzNjAuNSIgeTE9IjEwODUuOTIxOSIgeTI9IjExMDUuOTIxOSIvPjxwb2x5Z29uIGZpbGw9IiMxODE4MTgiIHBvaW50cz0iMTM1Ni41LDEwOTUuOTIxOSwxMzYwLjUsMTEwNS45MjE5LDEzNjQuNSwxMDk1LjkyMTksMTM2MC41LDEwOTkuOTIxOSIgc3R5bGU9InN0cm9rZTojMTgxODE4O3N0cm9rZS13aWR0aDoxLjA7Ii8+PGxpbmUgc3R5bGU9InN0cm9rZTojMTgxODE4O3N0cm9rZS13aWR0aDoxLjA7IiB4MT0iMTM2MC41IiB4Mj0iMTM2MC41IiB5MT0iMTEzOC43NjU2IiB5Mj0iMTE0My43NjU2Ii8+PGxpbmUgc3R5bGU9InN0cm9rZTojMTgxODE4O3N0cm9rZS13aWR0aDoxLjA7IiB4MT0iMTM2MC41IiB4Mj0iNzA5Ljc1IiB5MT0iMTE0My43NjU2IiB5Mj0iMTE0My43NjU2Ii8+PGxpbmUgc3R5bGU9InN0cm9rZTojMTgxODE4O3N0cm9rZS13aWR0aDoxLjA7IiB4MT0iNzA5Ljc1IiB4Mj0iNzA5Ljc1IiB5MT0iMTE0My43NjU2IiB5Mj0iMTE1OC43NjU2Ii8+PHBvbHlnb24gZmlsbD0iIzE4MTgxOCIgcG9pbnRzPSI3MDUuNzUsMTE0OC43NjU2LDcwOS43NSwxMTU4Ljc2NTYsNzEzLjc1LDExNDguNzY1Niw3MDkuNzUsMTE1Mi43NjU2IiBzdHlsZT0ic3Ryb2tlOiMxODE4MTg7c3Ryb2tlLXdpZHRoOjEuMDsiLz48bGluZSBzdHlsZT0ic3Ryb2tlOiMxODE4MTg7c3Ryb2tlLXdpZHRoOjEuMDsiIHgxPSI3My41IiB4Mj0iNjEuNSIgeTE9IjM0Ni42NDA2IiB5Mj0iMzQ2LjY0MDYiLz48bGluZSBzdHlsZT0ic3Ryb2tlOiMxODE4MTg7c3Ryb2tlLXdpZHRoOjEuMDsiIHgxPSI2MS41IiB4Mj0iNjEuNSIgeTE9IjM0Ni42NDA2IiB5Mj0iMzY0LjY0MDYiLz48bGluZSBzdHlsZT0ic3Ryb2tlOiMxODE4MTg7c3Ryb2tlLXdpZHRoOjEuMDsiIHgxPSI2MS41IiB4Mj0iNTMzLjUiIHkxPSIzNjQuNjQwNiIgeTI9IjM2NC42NDA2Ii8+PGxpbmUgc3R5bGU9InN0cm9rZTojMTgxODE4O3N0cm9rZS13aWR0aDoxLjA7IiB4MT0iNTMzLjUiIHgyPSI1MzMuNSIgeTE9IjM2NC42NDA2IiB5Mj0iMzc4LjY0MDYiLz48cG9seWdvbiBmaWxsPSIjMTgxODE4IiBwb2ludHM9IjUyOS41LDM2OC42NDA2LDUzMy41LDM3OC42NDA2LDUzNy41LDM2OC42NDA2LDUzMy41LDM3Mi42NDA2IiBzdHlsZT0ic3Ryb2tlOiMxODE4MTg7c3Ryb2tlLXdpZHRoOjEuMDsiLz48bGluZSBzdHlsZT0ic3Ryb2tlOiMxODE4MTg7c3Ryb2tlLXdpZHRoOjEuMDsiIHgxPSIxODEuNSIgeDI9Ijg4NiIgeTE9IjM0Ni42NDA2IiB5Mj0iMzQ2LjY0MDYiLz48bGluZSBzdHlsZT0ic3Ryb2tlOiMxODE4MTg7c3Ryb2tlLXdpZHRoOjEuMDsiIHgxPSI4ODYiIHgyPSI4ODYiIHkxPSIzNDYuNjQwNiIgeTI9IjM3OC42NDA2Ii8+PHBvbHlnb24gZmlsbD0iIzE4MTgxOCIgcG9pbnRzPSI4ODIsMzY4LjY0MDYsODg2LDM3OC42NDA2LDg5MCwzNjguNjQwNiw4ODYsMzcyLjY0MDYiIHN0eWxlPSJzdHJva2U6IzE4MTgxODtzdHJva2Utd2lkdGg6MS4wOyIvPjxsaW5lIHN0eWxlPSJzdHJva2U6IzE4MTgxODtzdHJva2Utd2lkdGg6MS4wOyIgeDE9IjUzMy41IiB4Mj0iNTMzLjUiIHkxPSI2ODYuODU5NCIgeTI9IjY5MC44NTk0Ii8+PGxpbmUgc3R5bGU9InN0cm9rZTojMTgxODE4O3N0cm9rZS13aWR0aDoxLjA7IiB4MT0iNTMzLjUiIHgyPSI5Ny41IiB5MT0iNjkwLjg1OTQiIHkyPSI2OTAuODU5NCIvPjxsaW5lIHN0eWxlPSJzdHJva2U6IzE4MTgxODtzdHJva2Utd2lkdGg6MS4wOyIgeDE9Ijk3LjUiIHgyPSI5Ny41IiB5MT0iNjkwLjg1OTQiIHkyPSI3MDguODU5NCIvPjxsaW5lIHN0eWxlPSJzdHJva2U6IzE4MTgxODtzdHJva2Utd2lkdGg6MS4wOyIgeDE9Ijk3LjUiIHgyPSIxMTUuNSIgeTE9IjcwOC44NTk0IiB5Mj0iNzA4Ljg1OTQiLz48cG9seWdvbiBmaWxsPSIjMTgxODE4IiBwb2ludHM9IjEwNS41LDcwNC44NTk0LDExNS41LDcwOC44NTk0LDEwNS41LDcxMi44NTk0LDEwOS41LDcwOC44NTk0IiBzdHlsZT0ic3Ryb2tlOiMxODE4MTg7c3Ryb2tlLXdpZHRoOjEuMDsiLz48bGluZSBzdHlsZT0ic3Ryb2tlOiMxODE4MTg7c3Ryb2tlLXdpZHRoOjEuMDsiIHgxPSI4ODYiIHgyPSI4ODYiIHkxPSI0MTEuNDg0NCIgeTI9IjcwOC44NTk0Ii8+PGxpbmUgc3R5bGU9InN0cm9rZTojMTgxODE4O3N0cm9rZS13aWR0aDoxLjA7IiB4MT0iODg2IiB4Mj0iMTM5LjUiIHkxPSI3MDguODU5NCIgeTI9IjcwOC44NTk0Ii8+PHBvbHlnb24gZmlsbD0iIzE4MTgxOCIgcG9pbnRzPSIxNDkuNSw3MDQuODU5NCwxMzkuNSw3MDguODU5NCwxNDkuNSw3MTIuODU5NCwxNDUuNSw3MDguODU5NCIgc3R5bGU9InN0cm9rZTojMTgxODE4O3N0cm9rZS13aWR0aDoxLjA7Ii8+PGxpbmUgc3R5bGU9InN0cm9rZTojMTgxODE4O3N0cm9rZS13aWR0aDoxLjA7IiB4MT0iMTI3LjUiIHgyPSIxMjcuNSIgeTE9IjcyMC44NTk0IiB5Mj0iNzI1Ljg1OTQiLz48bGluZSBzdHlsZT0ic3Ryb2tlOiMxODE4MTg7c3Ryb2tlLXdpZHRoOjEuMDsiIHgxPSIxMjcuNSIgeDI9IjExMTUiIHkxPSI3MjUuODU5NCIgeTI9IjcyNS44NTk0Ii8+PGxpbmUgc3R5bGU9InN0cm9rZTojMTgxODE4O3N0cm9rZS13aWR0aDoxLjA7IiB4MT0iMTExNSIgeDI9IjExMTUiIHkxPSI3MjUuODU5NCIgeTI9Ijc0MC44NTk0Ii8+PHBvbHlnb24gZmlsbD0iIzE4MTgxOCIgcG9pbnRzPSIxMTExLDczMC44NTk0LDExMTUsNzQwLjg1OTQsMTExOSw3MzAuODU5NCwxMTE1LDczNC44NTk0IiBzdHlsZT0ic3Ryb2tlOiMxODE4MTg7c3Ryb2tlLXdpZHRoOjEuMDsiLz48bGluZSBzdHlsZT0ic3Ryb2tlOiMxODE4MTg7c3Ryb2tlLXdpZHRoOjEuMDsiIHgxPSIxMTE1IiB4Mj0iMTExNSIgeTE9IjEwMjkuMDc4MSIgeTI9IjEwNDEuMDc4MSIvPjxsaW5lIHN0eWxlPSJzdHJva2U6IzE4MTgxODtzdHJva2Utd2lkdGg6MS4wOyIgeDE9IjExMTUiIHgyPSIxMzYwLjUiIHkxPSIxMDQxLjA3ODEiIHkyPSIxMDQxLjA3ODEiLz48bGluZSBzdHlsZT0ic3Ryb2tlOiMxODE4MTg7c3Ryb2tlLXdpZHRoOjEuMDsiIHgxPSIxMzYwLjUiIHgyPSIxMzYwLjUiIHkxPSIxMDQxLjA3ODEiIHkyPSIxMDUzLjA3ODEiLz48cG9seWdvbiBmaWxsPSIjMTgxODE4IiBwb2ludHM9IjEzNTYuNSwxMDQzLjA3ODEsMTM2MC41LDEwNTMuMDc4MSwxMzY0LjUsMTA0My4wNzgxLDEzNjAuNSwxMDQ3LjA3ODEiIHN0eWxlPSJzdHJva2U6IzE4MTgxODtzdHJva2Utd2lkdGg6MS4wOyIvPjx0ZXh0IGZpbGw9IiMwMDAwMDAiIGZvbnQtZmFtaWx5PSJzYW5zLXNlcmlmIiBmb250LXNpemU9IjE4IiBsZW5ndGhBZGp1c3Q9InNwYWNpbmciIHRleHRMZW5ndGg9IjcyIiB4PSI5MC41IiB5PSIyOC4wMTU2Ij5DdXN0b21lcjwvdGV4dD48dGV4dCBmaWxsPSIjMDAwMDAwIiBmb250LWZhbWlseT0ic2Fucy1zZXJpZiIgZm9udC1zaXplPSIxOCIgbGVuZ3RoQWRqdXN0PSJzcGFjaW5nIiB0ZXh0TGVuZ3RoPSIxMzUiIHg9IjU0My41IiB5PSIyOC4wMTU2Ij5SZXRhaWwgRW1wbG95ZWU8L3RleHQ+PHRleHQgZmlsbD0iIzAwMDAwMCIgZm9udC1mYW1pbHk9InNhbnMtc2VyaWYiIGZvbnQtc2l6ZT0iMTgiIGxlbmd0aEFkanVzdD0ic3BhY2luZyIgdGV4dExlbmd0aD0iMTYyIiB4PSIxMDMzIiB5PSIyOC4wMTU2Ij5XYXJlaG91c2UgRW1wbG95ZWU8L3RleHQ+PHRleHQgZmlsbD0iIzAwMDAwMCIgZm9udC1mYW1pbHk9InNhbnMtc2VyaWYiIGZvbnQtc2l6ZT0iMTgiIGxlbmd0aEFkanVzdD0ic3BhY2luZyIgdGV4dExlbmd0aD0iNjMiIHg9IjEzMzEuMjUiIHk9IjI4LjAxNTYiPkF1ZGl0b3I8L3RleHQ+PCEtLVNSQz1bYlBGQlJlQ200NE50VjhNTm9JLTRIUE5JQWlzZ0tNWVJqTUtGbkdmdWFDU2FHa0JaUXBrYUY0QUhrYUNwdnl4QmJwUWZvTTg5ZmV0OFNjRVpwSnQwZFdyVTJPWmo0Mk41YVNoT1FjLVhQMmFLODJwOGZwTXBFTVlzUWUzTTRNRXp5YWwxalRFbjV4MVM1S3VGMUc1UlFWSWV1d2U4ajVKUGVEek1vaGw4OGFsU0NGNFdVcDBlMEJmUzNrQUNqVXM3OGdQcWE0bzdRZS1YRnRpamdtOFJXRE9GRWVjbkw3MURCREk5dl84eHE2MnVUUlZ1Qzh4YW1ZaEtkbEpqM3htZkdMa01yYTgwS0xPTnFuYmNBZHZNQ2pKUnd1bEplY2RZVVN2alZMN0lXS1NHZTJlUmprekVxYWItQnZJV0t1NmxVZ1lEbzNjMTl1UGQ3ejVTMnZTUmktNTVYZWViX2FQN3hPYVJvQjVzZWx4OGN5VldST0xCUndXdlBiakJQSFU5Rkw2ek4yRXlLR1BjNE5oWk1YUFpTdVZVRk41MlN0dm1LczNHMTFUcnRfVVBIeTl1MkZKc2tSS3VHZU5VdDdfeTRUNlpQbnp5eUx2cjVIREVrSWx1aFNYd0h5bVBvQmpvUWJzX3hvMm1PRHVfaEpsZkY0RXcxcVZaX2pZSzVwMEJCQmx4ZHB4cTVfbTFdLS0+PC9nPjwvc3ZnPg==;" vertex="1" parent="1">
            <mxGeometry x="-1654" y="-1169" width="1503" height="1520" as="geometry" />
          </mxCell>
        </UserObject>
      </root>
    </mxGraphModel>
  </diagram>
</mxfile>
